<svg width="755" height="702" viewBox="0 0 755 702" fill="none" xmlns="http://www.w3.org/2000/svg">
	<g filter="url(#filter0_d_3_14)">
		<g filter="url(#filter1_d_3_14)">
			<path d="M347.721 368.443C347.721 368.193 348.059 366.231 348.473 364.084C350.626 352.904 348.271 335.793 342.722 322.292C341.612 319.59 340.704 317.233 340.704 317.052C340.704 316.872 341.662 316.103 342.834 315.343C350.197 310.572 358.348 302.111 364.809 292.534C369.08 286.204 369.789 284.416 367.395 286.014C362.571 289.236 351.715 295.348 344.212 299.067C325.391 308.397 307.856 313.49 296.165 313.023C291.849 312.851 290.847 312.629 287.913 311.193C282.052 308.325 280.207 304.208 279.583 292.603C279.208 285.639 279.208 285.639 275.928 282.31C271.616 277.935 271.14 277.002 272.378 275.355C272.93 274.62 274.311 273.808 275.687 273.409C278.375 272.63 278.661 271.983 276.671 271.184C269.796 268.424 266.52 265.97 266.52 263.58C266.52 262.959 267.423 260.641 268.525 258.429C269.628 256.216 270.529 253.883 270.528 253.244C270.524 250.916 268.781 249.086 264.451 246.867C262.143 245.684 259.195 243.953 257.9 243.02C255.129 241.025 252.486 237.644 252.486 236.094C252.486 235.432 253.904 233.451 256.071 231.087C265.834 220.434 270.703 213.217 273.329 205.505C274.569 201.861 274.594 193.567 273.385 186.576C272.168 179.536 271.717 164.15 272.503 156.436C273.796 143.735 277.137 132.357 283.371 119.432C284.599 116.887 285.82 114.939 286.086 115.102C286.352 115.266 286.57 117.039 286.57 119.044C286.57 124.217 288.353 134.132 290.37 140.176C293.431 149.35 297.438 155.997 305.163 164.718C306.77 166.532 307.97 168.131 307.829 168.271C307.688 168.411 306.625 168.295 305.467 168.014C304.309 167.733 300.542 167.479 297.096 167.45C290.086 167.391 287.968 167.891 285.274 170.241C283.905 171.436 283.563 172.103 283.563 173.58C283.563 174.595 283.86 175.83 284.223 176.324C284.854 177.181 285.055 177.161 288.609 175.877C293.201 174.218 299.89 173.733 306.369 174.589C314.579 175.674 315.304 175.935 319.26 179.23C325.761 184.645 332.615 188.584 338.877 190.504C342.024 191.468 346.719 191.937 346.719 191.286C346.719 191.137 345.274 189.251 343.508 187.094C339.068 181.674 333.949 172.698 334.81 171.843C334.945 171.709 336.045 172.426 337.253 173.437C342.262 177.628 350.556 182.204 357.914 184.837C360.348 185.708 362.121 186.666 362.578 187.359C364.015 189.539 369.236 201.502 370.965 206.578C373.406 213.743 374.407 218.844 374.548 224.832C374.614 227.653 374.781 230.073 374.919 230.21C375.764 231.05 384.604 218.214 391.589 206.003C397.567 195.554 400.428 191.407 404.325 187.541C408.665 183.235 411.997 181.594 416.4 181.594C420.822 181.594 423.877 182.708 426.927 185.434C430.215 188.372 431.705 190.982 433.002 196.079C433.899 199.607 434.019 201.161 433.782 206.237C433.44 213.595 432.636 216.653 429.192 223.704C425.179 231.921 417.23 241.513 411.128 245.502C407.864 247.635 403.377 248.543 399.162 247.921C397.216 247.634 395.533 247.488 395.423 247.598C395.313 247.707 395.476 248.517 395.784 249.397C397.182 253.383 401.022 256.316 404.842 256.316C405.956 256.316 406.867 256.537 406.867 256.808C406.867 257.078 406.314 259.418 405.637 262.007C404.96 264.597 403.589 270.82 402.59 275.837C398.373 297.021 392.582 315.543 386.343 327.8C377.715 344.751 366.578 357.476 352.395 366.587C348.828 368.878 347.721 369.318 347.721 368.443ZM405.573 230.93C409.301 229.162 413.938 224.562 415.497 221.086C418.092 215.302 415.845 207.599 410.519 204.022C407.632 202.083 407.364 201.297 408.92 199.332C412.194 195.194 418.588 194.97 423.659 198.814C425.642 200.317 425.855 199.85 424.44 197.094C423.362 194.993 420.455 192.24 418.558 191.524C412.776 189.339 406.479 194.874 403.617 204.656C402.948 206.946 402.853 208.594 403.132 213.104C403.434 217.996 403.346 219.131 402.434 222.063C401.017 226.619 400.607 230.022 401.316 231.339C401.632 231.925 402.019 232.405 402.177 232.405C402.335 232.405 403.863 231.741 405.573 230.93ZM299.518 210.437C303.127 209.225 308.782 205.679 312.384 202.369C315.372 199.622 314.815 199.427 309.126 201.229C301.055 203.784 296.669 203.328 293.577 199.612C291.649 197.295 291.1 197.946 291.089 202.562C291.085 204.367 290.753 206.928 290.353 208.251C289.952 209.574 289.74 210.843 289.881 211.07C290.386 211.881 296.387 211.487 299.518 210.437ZM475.534 214.504C473.014 213.743 471.209 212.518 468.668 209.848C464.069 205.015 458.322 195.131 454.938 186.234C453.348 182.053 453.269 181.522 453.264 175.118C453.258 167.135 454.129 163.994 457.88 158.471C461.689 152.862 469.934 147.346 476.231 146.193C480.203 145.465 483.456 145.993 487.554 148.031C492.729 150.604 495.513 154.1 497.328 160.304C497.785 161.866 498.342 163.257 498.566 163.394C499.129 163.74 499.597 161.119 499.597 157.621C499.597 155.105 499.727 154.694 500.524 154.694C502.983 154.694 509.475 161.214 511.684 165.902C515.816 174.675 515.586 185.654 511.096 194.026C507.766 200.236 500.506 206.252 490.93 210.739C482.762 214.566 478.879 215.516 475.534 214.504ZM551.725 204.265C544.814 203.088 541.495 202.006 534.916 198.783C527.715 195.255 523.674 192.083 520.444 187.421C518.697 184.9 518.534 184.352 518.118 179.595C517.351 170.818 515.232 165.66 509.361 158.282C507.574 156.036 506.113 153.979 506.113 153.709C506.113 152.117 515.181 152.532 520.494 154.366C522.476 155.051 526.142 156.526 528.64 157.643C531.137 158.761 533.293 159.676 533.431 159.676C534.438 159.676 533.178 157.828 530.427 155.27C526.898 151.99 521.883 149.3 516.934 148.033C515.304 147.616 513.643 146.949 513.242 146.55C512.604 145.917 512.665 145.727 513.728 145.035C514.396 144.6 517.298 143.772 520.177 143.195C528.176 141.591 527.677 141.075 518.518 141.48C511.064 141.809 510.624 141.778 510.626 140.914C510.627 140.392 511.969 138.929 513.751 137.508C520.95 131.767 530.162 121.896 528.755 121.43C528.032 121.19 522.926 123.835 516.397 127.831C510.791 131.263 509.621 131.766 509.621 130.749C509.621 128.932 513.539 121.529 518.023 114.872C524.496 105.262 527.24 99.7251 528.981 92.7675C529.723 89.8046 530.765 86.8296 531.298 86.1566C532.614 84.4943 540.558 80.7526 545.429 79.5005C550.751 78.1326 558.147 78.1191 563.55 79.4673C568.768 80.7697 575.314 84.0661 577.537 86.5112C579.552 88.7276 579.788 90.6474 578.547 94.713C577.508 98.116 577.546 98.2598 579.762 99.3832C582.083 100.56 583.304 102.113 583.304 103.89C583.304 108.328 579.022 117.975 574.269 124.243C567.989 132.526 561.374 136.508 549.23 139.316C543.459 140.65 543.15 140.753 543.456 141.247C543.603 141.482 545.016 141.939 546.596 142.262C554.427 143.859 561.678 146.894 566.935 150.776C576.662 157.957 581.892 173.612 579.05 187.04C577.948 192.248 577.138 193.785 574.49 195.695C572.806 196.91 571.88 198.039 571.309 199.575C570.81 200.918 569.881 202.159 568.865 202.839C565.639 204.999 559.192 205.536 551.725 204.265ZM462.868 144.208C451.888 143.003 439.91 137.292 432.823 129.883C429.499 126.408 425.259 120.223 423.386 116.119C421.656 112.327 419.397 104.692 419.403 102.66C419.413 99.6441 421.708 96.0111 426.791 90.9643C430.957 86.8278 432.382 85.7655 436.44 83.7693C445.336 79.3941 452.165 79.0097 459.808 82.4541C470.499 87.2717 481.225 100.055 486.592 114.376C488.852 120.406 489.071 124.966 487.427 131.78C486.734 134.656 486.029 138.457 485.861 140.226C485.693 141.995 485.388 143.594 485.183 143.78C484.571 144.335 467.078 144.67 462.868 144.208ZM503.105 127.171C503.105 126.828 503.558 124.194 504.11 121.317C505.86 112.216 506.256 107.679 505.626 103.967C505.046 100.55 504.407 98.9368 503.852 99.4883C503.681 99.658 503.231 101.109 502.851 102.712C501.684 107.643 499.569 113.399 497.296 117.831C494.683 122.926 493.323 124.753 492.658 124.058C492.397 123.784 491.138 120.434 489.862 116.613C486.706 107.167 481.712 98.4142 475.669 91.7397C472.882 88.6614 471.948 85.9821 471.652 80.2226C471.34 74.1482 472.269 69.232 474.835 63.3855C478.303 55.4817 481.407 51.6521 488.884 46.0502C491.4 44.165 493.808 42.0932 494.235 41.4461C494.661 40.799 495.825 39.8853 496.821 39.4155C498.315 38.7111 498.935 38.6607 500.358 39.1275C503.255 40.0779 509.368 44.3535 513.678 48.4441C522.735 57.0407 526.88 65.7409 527.513 77.4816C527.996 86.4422 526.307 95.4194 522.682 103.165C519.482 110.003 511.437 121.119 506.388 125.677C503.972 127.859 503.105 128.253 503.105 127.171Z" fill="#F9F8F8"/>
			<path d="M469.844 472.76C466.283 471.412 460.269 467.308 460.741 466.549C460.876 466.331 462.028 466.374 463.3 466.643C468.193 467.681 473.951 465.7 478.383 461.457C482.404 457.607 484.899 449.826 484.315 442.961C483.902 438.108 482.975 434.963 480.541 430.152C477.837 424.808 475.553 422.066 465.825 412.485C457.039 403.831 455.084 401.282 452.657 395.309C449.995 388.76 449.361 385.159 449.102 375.118C448.804 363.577 449.439 358.55 453.037 343.99C456.044 331.817 457.716 322.304 458.496 312.934C459.021 306.625 458.961 305.003 458.229 305.73C458.083 305.876 457.421 308.211 456.757 310.919C452.162 329.673 442.86 346.911 429.975 360.552C421.903 369.098 412.677 375.706 394.941 385.646C373.144 397.862 367.379 401.563 358.959 408.749C354.243 412.773 348.957 418.723 346.016 423.318C340.593 431.79 337.826 445.267 340 452.62C342.782 462.024 348.34 467.222 356.328 467.887C358.514 468.069 359.718 468.377 359.603 468.724C359.503 469.026 358.1 469.946 356.487 470.768C353.809 472.132 353.135 472.259 348.757 472.229C343.22 472.19 340.728 471.373 335.088 467.748C330.667 464.905 327.387 461.851 323.95 457.376C316.699 447.935 313.84 437.99 315.088 426.552C315.638 421.509 317.761 413.475 319.396 410.243C319.742 409.558 320.2 408.439 320.412 407.756C320.769 406.61 320.73 406.571 319.909 407.249C318.792 408.17 313.863 414.656 311.757 417.975C309.262 421.909 306.214 428.717 305.386 432.209C304.128 437.512 304.407 442.696 306.388 450.842C306.752 452.336 306.752 452.336 304.897 450.593C302.464 448.306 299.283 441.827 298.291 437.143C297.713 434.409 297.57 431.803 297.759 427.429C298.06 420.451 299.161 416.144 302.344 409.496C307.845 398.007 313.492 391.814 334.208 374.546C339.848 369.845 345.365 365.22 346.468 364.268C348.473 362.537 348.473 362.537 348.754 354.633C349.035 346.729 349.035 346.729 349.13 353.416C349.192 357.783 348.951 361.556 348.434 364.295C347.999 366.601 347.778 368.621 347.943 368.785C348.703 369.54 359.004 362.388 364.606 357.215C375.868 346.818 386.257 330.806 391.772 315.346C396.485 302.136 399.672 290.498 402.59 275.837C403.589 270.82 404.96 264.597 405.637 262.007C406.314 259.418 406.867 257.078 406.867 256.808C406.867 256.537 405.956 256.316 404.842 256.316C401.022 256.316 397.182 253.383 395.784 249.397C395.476 248.517 395.313 247.707 395.423 247.598C395.533 247.488 397.216 247.634 399.162 247.921C403.377 248.543 407.864 247.635 411.128 245.502C417.23 241.513 425.179 231.921 429.192 223.704C432.636 216.653 433.44 213.595 433.782 206.237C434.239 196.42 432.16 190.109 426.927 185.434C423.877 182.708 420.822 181.594 416.4 181.594C411.997 181.594 408.665 183.235 404.325 187.541C400.428 191.407 397.567 195.554 391.589 206.003C384.604 218.213 375.764 231.05 374.919 230.21C374.781 230.073 374.614 227.653 374.548 224.832C374.407 218.844 373.406 213.743 370.965 206.578C369.236 201.502 364.015 189.539 362.578 187.359C362.121 186.666 360.348 185.708 357.914 184.837C350.556 182.204 342.262 177.628 337.253 173.437C336.045 172.426 334.945 171.709 334.81 171.843C333.949 172.698 339.068 181.674 343.508 187.094C345.274 189.251 346.719 191.137 346.719 191.286C346.719 191.937 342.024 191.468 338.877 190.503C332.615 188.584 325.761 184.645 319.26 179.23C315.304 175.935 314.579 175.674 306.369 174.589C299.89 173.733 293.201 174.218 288.609 175.877C285.055 177.161 284.854 177.181 284.223 176.324C283.86 175.83 283.563 174.595 283.563 173.58C283.563 172.103 283.905 171.436 285.274 170.241C287.968 167.891 290.085 167.391 297.096 167.45C300.542 167.479 304.309 167.733 305.467 168.014C306.625 168.295 307.688 168.411 307.829 168.271C307.97 168.131 306.77 166.532 305.163 164.718C297.438 155.997 293.431 149.35 290.37 140.176C288.353 134.132 286.57 124.217 286.57 119.044C286.57 117.039 286.377 115.281 286.14 115.136C285.581 114.792 283.724 118.244 280.807 125.055C272.421 144.633 270.353 161.701 273.293 187.074C273.483 188.71 273.427 189.032 273.086 188.264C272.734 187.47 271.987 187.13 270.029 186.872C261.747 185.78 255.532 180.27 251.155 170.139C249.734 166.849 248.803 163.158 247.725 156.53C247.336 154.141 246.588 154.362 245.427 157.208C243.492 161.951 244.452 173.219 247.346 179.736C248.048 181.317 248.497 182.735 248.345 182.886C247.857 183.371 245.222 181.73 243.098 179.619C233.651 170.23 231.341 152.163 237.267 134.021C241.219 121.926 249.835 108.721 261.34 97.1297C275.007 83.3606 291.649 71.9464 307.121 65.7315C310.085 64.5409 313.302 62.7568 315.642 61.0062C331.779 48.933 354.782 40.6024 380.832 37.3973C388.028 36.5119 401.774 36.4002 409.662 37.1631C431.1 39.2364 452.789 47.8524 470.612 61.3755C472.176 62.5624 473.574 63.5335 473.717 63.5335C473.861 63.5335 474.823 61.9372 475.854 59.9861C479.088 53.8716 482.506 50.0494 488.82 45.4912C490.198 44.496 492.329 42.6593 493.554 41.4096C494.78 40.1599 496.544 38.8875 497.475 38.5821C498.979 38.0891 499.518 38.1982 502.295 39.5566C508.432 42.5595 517.088 50.1386 520.903 55.85C527.002 64.9824 529.271 75.7404 527.639 87.7821C526.535 95.9249 524.041 102.885 520.035 109.002C517.752 112.488 517.222 113.972 518.553 113.155C519.373 112.651 525.089 102.736 526.352 99.6243C527.015 97.994 528.063 94.5669 528.683 92.0085C529.413 88.9975 530.248 86.8389 531.053 85.8885C532.661 83.9897 540.344 80.3092 545.429 79.0024C555.386 76.4433 567.461 78.5926 576.025 84.4482C579.788 87.0216 580.558 89.6912 579.02 94.8373C578.594 96.263 578.378 97.6427 578.54 97.9033C578.702 98.1638 579.625 98.7495 580.59 99.2048C582.46 100.087 583.805 102.093 583.805 104.003C583.805 107.755 580.164 116.64 576.323 122.261C569.528 132.206 561.067 137.484 547.465 140.266C543.981 140.978 544.05 141.028 551.224 142.952C553.843 143.655 558.333 145.393 561.203 146.816C568.387 150.377 572.689 154.567 575.958 161.19C578.948 167.245 579.834 170.628 580.161 177.239C580.58 185.735 578.98 192.365 575.826 195.197C574.779 196.137 573.692 196.992 573.41 197.096C573.129 197.2 572.364 198.405 571.71 199.773C570.281 202.763 568.217 204.241 564.351 205.041C559.151 206.118 548.917 204.846 541.45 202.193C535.481 200.073 536.021 199.926 536.429 203.564C537.619 214.188 540.258 223.13 544.792 231.903C551.56 244.997 559.843 254.145 580.046 270.843C590.182 279.221 600.168 289.137 604.297 294.922C608.218 300.417 613.426 310.842 614.826 316.001C617.996 327.677 616.827 340.578 611.634 351.213C609.551 355.478 605.261 360.927 603.985 360.927C603.668 360.927 603.94 360.003 604.607 358.809C606.544 355.343 607.516 349.265 607.245 342.307C607.048 337.256 606.744 335.454 605.383 331.287C602.103 321.244 596.147 311.965 585.665 300.569C581.124 295.632 576.472 291.36 577.374 292.956C577.521 293.216 579.017 295.672 580.698 298.415C587.553 309.598 592.065 321.969 594.413 336.019C595.403 341.941 595.235 359.138 594.13 365.161C590.838 383.094 582.001 396.764 567.278 406.7C563.136 409.496 563.136 409.496 561.456 414.188C555.854 429.835 548.191 439.252 536.318 445.079C532.457 446.974 530.673 447.519 530.673 446.804C530.673 446.638 531.323 445.685 532.118 444.687C537.201 438.299 541.081 427.82 542.75 415.972C543.097 413.506 543.394 407.678 543.408 403.02C543.437 393.797 542.797 389.604 540.215 382.098C537.668 374.692 534.035 366.884 533.422 367.494C533.309 367.606 533.544 368.92 533.945 370.414C537.209 382.588 538.603 395.701 537.694 405.689C535.996 424.363 528.238 439.601 515.621 449.05C511.806 451.906 502.27 457.069 500.808 457.069C500.421 457.069 498.892 458.699 497.409 460.692C493.752 465.606 489.274 469.613 485.226 471.594C482.185 473.082 481.375 473.252 476.819 473.366C473.326 473.453 471.184 473.267 469.844 472.76ZM506.81 443.153C509.413 437.388 510.246 433.061 510.27 425.187C510.294 417.085 509.353 411.634 506.669 404.331C504.628 398.778 502.47 394.975 496.61 386.604C493.915 382.756 490.688 377.814 489.438 375.622C487.33 371.927 483.557 362.767 483.557 361.347C483.557 360.883 483.413 360.87 482.986 361.295C482.235 362.041 483.241 372.476 484.797 380.093C486.086 386.4 487.745 390.419 492.82 399.533C501.9 415.836 504.099 423.587 504.105 439.321C504.108 448.182 504.371 448.554 506.81 443.153ZM567.658 398.253C571.003 392.758 573.184 383.365 573.605 372.633C573.955 363.737 572.859 356.054 570.053 347.718C565.611 334.525 559.088 325.032 541.092 305.567C530.652 294.274 525.696 288.305 520.775 281.099C516.079 274.22 515.666 274.531 518.853 282.546C520.977 287.887 525.625 295.897 531.719 304.716C543.74 322.116 549.692 331.185 552.587 336.517C561.661 353.232 566.253 371.985 565.577 389.57C565.409 393.954 565.121 398.411 564.938 399.475C564.47 402.192 565.558 401.703 567.658 398.253ZM483.197 213.936C491.868 211.059 502.641 204.621 507.097 199.653C516.888 188.735 517.221 170.552 507.818 160.211C504.937 157.043 501.832 154.694 500.524 154.694C499.727 154.694 499.597 155.105 499.597 157.621C499.597 161.119 499.129 163.74 498.566 163.394C498.342 163.257 497.785 161.866 497.328 160.304C495.513 154.1 492.729 150.604 487.554 148.031C479.872 144.212 473.33 145.365 464.101 152.165C459.607 155.477 456.201 160.037 454.399 165.155C453.429 167.911 453.26 169.395 453.264 175.118C453.269 181.522 453.348 182.053 454.938 186.234C458.322 195.131 464.069 205.015 468.668 209.848C473.445 214.868 477.201 215.925 483.197 213.936ZM564.715 204.471C568.256 203.717 570.346 202.165 571.309 199.575C571.88 198.039 572.806 196.91 574.49 195.695C577.138 193.785 577.948 192.248 579.05 187.04C581.892 173.612 576.662 157.957 566.935 150.776C561.678 146.894 554.427 143.859 546.597 142.262C545.016 141.939 543.603 141.482 543.457 141.247C543.15 140.753 543.46 140.65 549.23 139.316C561.374 136.508 567.989 132.526 574.269 124.243C579.022 117.975 583.304 108.328 583.304 103.89C583.304 102.113 582.083 100.56 579.762 99.3832C577.546 98.2597 577.508 98.116 578.547 94.713C579.788 90.6474 579.552 88.7276 577.537 86.5112C575.314 84.0661 568.768 80.7697 563.55 79.4673C558.147 78.1191 550.751 78.1326 545.429 79.5005C540.558 80.7526 532.614 84.4943 531.298 86.1566C530.765 86.8296 529.723 89.8046 528.981 92.7675C527.241 99.7251 524.496 105.262 518.023 114.872C513.539 121.529 509.621 128.932 509.621 130.749C509.621 131.766 510.791 131.263 516.397 127.831C522.927 123.835 528.032 121.19 528.755 121.43C530.162 121.896 520.95 131.767 513.751 137.508C511.969 138.929 510.627 140.392 510.626 140.914C510.624 141.778 511.065 141.809 518.518 141.48C527.677 141.075 528.176 141.591 520.177 143.195C517.298 143.772 514.396 144.6 513.728 145.035C512.665 145.727 512.604 145.917 513.242 146.55C513.643 146.949 515.304 147.616 516.934 148.033C521.883 149.3 526.898 151.99 530.427 155.27C533.178 157.828 534.438 159.676 533.431 159.676C533.293 159.676 531.137 158.761 528.64 157.643C526.142 156.526 522.476 155.051 520.494 154.366C515.181 152.532 506.113 152.117 506.113 153.709C506.113 153.979 507.574 156.036 509.361 158.282C515.232 165.66 517.351 170.818 518.118 179.595C518.534 184.352 518.697 184.9 520.444 187.421C523.674 192.083 527.715 195.255 534.916 198.783C545.384 203.912 556.967 206.123 564.715 204.471ZM485.183 143.78C485.388 143.594 485.693 141.995 485.861 140.226C486.029 138.457 486.734 134.656 487.427 131.78C488.436 127.597 488.636 125.75 488.428 122.564C487.861 113.908 481.754 102.089 472.597 91.9241C467.083 85.804 459.867 81.541 453.056 80.3802C448.178 79.5489 442.784 80.6492 436.44 83.7693C432.382 85.7655 430.957 86.8278 426.791 90.9643C421.708 96.0111 419.413 99.6441 419.403 102.66C419.396 104.692 421.656 112.327 423.386 116.119C425.259 120.223 429.499 126.408 432.823 129.883C439.91 137.292 451.888 143.003 462.868 144.208C467.078 144.67 484.571 144.335 485.183 143.78ZM506.388 125.677C511.437 121.119 519.482 110.003 522.682 103.165C526.307 95.4194 527.996 86.4422 527.513 77.4816C526.881 65.7409 522.735 57.0407 513.678 48.4441C509.368 44.3535 503.256 40.0779 500.358 39.1275C498.935 38.6607 498.315 38.7111 496.821 39.4155C495.825 39.8853 494.661 40.799 494.235 41.4461C493.808 42.0932 491.4 44.165 488.884 46.0502C481.407 51.6521 478.303 55.4817 474.835 63.3855C472.269 69.232 471.34 74.1482 471.652 80.2226C471.948 85.9821 472.882 88.6614 475.669 91.7397C481.712 98.4142 486.706 107.167 489.862 116.613C491.138 120.434 492.397 123.784 492.659 124.058C494.168 125.638 500.625 112.115 502.851 102.712C503.231 101.109 503.681 99.658 503.852 99.4883C504.407 98.9368 505.046 100.55 505.626 103.967C506.256 107.679 505.86 112.216 504.11 121.317C503.558 124.194 503.105 126.828 503.105 127.171C503.105 128.253 503.972 127.859 506.388 125.677ZM488.068 112.943C488.068 111.872 484.484 104.774 481.982 100.889C481.01 99.379 478.341 95.8294 476.052 93.001C473.079 89.3281 471.772 88.0475 471.478 88.5203C471.012 89.2697 471.129 89.4506 475.192 94.2298C479.188 98.9313 482.319 103.754 484.928 109.227C487.04 113.658 488.068 114.875 488.068 112.943ZM269.027 442.113C265.595 441.408 259.122 438.008 255.587 435.055C251.131 431.332 246.854 425.774 243.968 419.957C240.617 413.2 239.415 408.459 239.106 400.778C238.588 387.869 241.858 376.91 249.61 365.577C253.422 360.004 253.355 360.158 251.505 361.228C248.764 362.815 239.144 372.229 235.923 376.477C230.119 384.133 227.902 389.96 227.888 397.603C227.879 402.648 228.545 406.065 230.087 408.868C231.372 411.205 230.966 411.649 228.775 410.303C224.126 407.448 220.137 401.235 218.882 394.898C217.945 390.167 218.512 381.465 220.04 377.116C222.983 368.744 227.369 362.067 234.347 355.338C239.915 349.97 243.353 347.367 255.243 339.519C259.929 336.426 265.53 332.433 267.689 330.646C274.432 325.065 279.492 318.348 281.882 311.805C283.081 308.522 283.081 308.522 282.02 306.815C280.34 304.114 279.531 300.365 279.238 293.926C279.088 290.638 278.741 287.217 278.466 286.323C278.168 285.353 276.88 283.764 275.271 282.384C270.171 278.008 269.955 274.695 274.677 273.286C275.992 272.894 277.003 272.376 276.922 272.136C276.842 271.896 275.464 271.169 273.861 270.522C268.027 268.165 265.497 265.477 266.243 262.428C266.429 261.669 267.356 259.547 268.305 257.712C270.15 254.14 270.367 252.897 269.446 251.177C268.638 249.669 267.856 249.113 263.262 246.781C256.845 243.522 251.985 238.913 251.985 236.087C251.985 235.337 253.666 233.07 256.824 229.562C265.253 220.199 269.511 213.947 272.369 206.738C273.632 203.554 273.749 202.688 273.768 196.369C273.783 191.345 273.899 190.061 274.195 191.637C274.824 194.976 274.242 202.893 273.139 206.014C270.461 213.591 265.71 220.569 256.071 231.087C253.904 233.451 252.486 235.432 252.486 236.094C252.486 237.644 255.129 241.025 257.9 243.02C259.195 243.953 262.143 245.684 264.451 246.866C268.781 249.086 270.525 250.916 270.528 253.244C270.529 253.883 269.628 256.216 268.525 258.429C267.423 260.641 266.52 262.959 266.52 263.58C266.52 265.97 269.796 268.424 276.671 271.184C278.661 271.983 278.375 272.63 275.687 273.409C274.311 273.808 272.93 274.62 272.378 275.355C271.14 277.002 271.616 277.935 275.928 282.31C279.208 285.639 279.208 285.639 279.583 292.603C280.207 304.208 282.052 308.325 287.913 311.193C290.847 312.629 291.849 312.851 296.165 313.023C307.856 313.49 325.391 308.397 344.212 299.067C351.715 295.348 362.571 289.236 367.395 286.014C369.789 284.416 369.08 286.204 364.809 292.534C358.348 302.111 350.197 310.572 342.834 315.343C341.662 316.103 340.704 316.872 340.704 317.052C340.704 317.233 341.624 319.613 342.749 322.341C345.141 328.141 348.022 338.863 348.433 343.491C348.67 346.157 348.558 345.849 347.798 341.748C346.133 332.763 342.959 322.992 339.381 315.844C337.453 311.992 333.008 305.134 332.441 305.136C332.161 305.137 330.24 305.824 328.173 306.663C322.061 309.142 309.396 312.579 304.19 313.171C298.059 313.868 297.477 314.046 299.101 314.724C299.79 315.011 303.061 315.318 306.369 315.404C312.384 315.562 312.384 315.562 312.235 317.447C311.854 322.264 308.318 331.836 304.384 338.697C301.435 343.839 295.086 352.553 289.82 358.685C272.913 378.373 267.045 388.537 264.55 402.457C262.817 412.128 263.505 418.788 266.97 425.868C270.628 433.341 275.52 437.469 282.218 438.731C284.064 439.079 285.501 439.583 285.411 439.852C284.815 441.629 273.962 443.126 269.027 442.113ZM401.316 231.339C400.607 230.022 401.017 226.619 402.434 222.063C403.346 219.131 403.434 217.996 403.132 213.104C402.853 208.594 402.948 206.946 403.617 204.656C406.479 194.874 412.776 189.339 418.558 191.524C420.455 192.24 423.362 194.993 424.44 197.094C425.855 199.85 425.642 200.317 423.659 198.814C418.588 194.97 412.194 195.194 408.92 199.332C407.364 201.297 407.632 202.083 410.519 204.022C415.845 207.599 418.092 215.302 415.497 221.086C413.938 224.562 409.301 229.162 405.573 230.93C403.863 231.741 402.335 232.405 402.177 232.405C402.019 232.405 401.632 231.925 401.316 231.339ZM289.881 211.07C289.74 210.843 289.952 209.574 290.353 208.251C290.753 206.928 291.085 204.367 291.089 202.562C291.1 197.946 291.649 197.295 293.577 199.612C296.669 203.328 301.055 203.784 309.126 201.229C314.815 199.427 315.372 199.622 312.384 202.368C308.782 205.679 303.127 209.225 299.518 210.437C296.387 211.487 290.386 211.881 289.881 211.07Z" fill="#0053B9"/>
		</g>
	</g>
	<g filter="url(#filter2_d_3_14)">
		<path d="M83.7405 618V530.704H93.7245V618H83.7405ZM92.1885 582.928L123.421 556.816H137.373L92.1885 593.552V582.928ZM126.493 618L97.4365 579.344L107.549 577.552L138.781 618H126.493ZM197.466 556.688H207.45V618H197.466V556.688ZM154.074 556.688H164.058V594.832C164.058 599.952 165.295 603.835 167.77 606.48C170.287 609.125 173.871 610.448 178.522 610.448C182.362 610.448 185.69 609.424 188.506 607.376C191.364 605.328 193.562 602.512 195.098 598.928C196.676 595.301 197.466 591.163 197.466 586.512H201.178C201.178 593.381 200.175 599.248 198.17 604.112C196.207 608.976 193.412 612.709 189.786 615.312C186.202 617.872 181.978 619.152 177.114 619.152C172.506 619.152 168.474 618.299 165.018 616.592C161.562 614.885 158.874 612.304 156.954 608.848C155.034 605.349 154.074 600.933 154.074 595.6V556.688ZM233.366 618V556.688H243.35V618H233.366ZM240.278 590.352C240.278 582.587 241.024 576.144 242.518 571.024C244.011 565.861 246.187 562.021 249.046 559.504C251.947 556.944 255.467 555.664 259.606 555.664C260.971 555.664 262.208 555.771 263.318 555.984C264.47 556.155 265.622 556.432 266.774 556.816L266.134 566.672C264.939 566.288 263.638 565.968 262.23 565.712C260.822 565.413 259.563 565.264 258.454 565.264C254.827 565.264 251.904 566.309 249.686 568.4C247.467 570.448 245.846 573.349 244.822 577.104C243.84 580.859 243.35 585.275 243.35 590.352H240.278ZM321.216 556.688H331.2V618H321.216V556.688ZM277.824 556.688H287.808V594.832C287.808 599.952 289.045 603.835 291.52 606.48C294.037 609.125 297.621 610.448 302.272 610.448C306.112 610.448 309.44 609.424 312.256 607.376C315.114 605.328 317.312 602.512 318.848 598.928C320.426 595.301 321.216 591.163 321.216 586.512H324.928C324.928 593.381 323.925 599.248 321.92 604.112C319.957 608.976 317.162 612.709 313.536 615.312C309.952 617.872 305.728 619.152 300.864 619.152C296.256 619.152 292.224 618.299 288.768 616.592C285.312 614.885 282.624 612.304 280.704 608.848C278.784 605.349 277.824 600.933 277.824 595.6V556.688Z" fill="#0053B9"/>
	</g>
	<g filter="url(#filter3_d_3_14)">
		<mask id="path-4-outside-1_3_14" maskUnits="userSpaceOnUse" x="358" y="529" width="393" height="92" fill="black">
			<rect fill="white" x="358" y="529" width="393" height="92"/>
			<path d="M386.316 619.536C381.367 619.536 376.823 618.213 372.684 615.568C368.545 612.88 365.239 609.125 362.764 604.304C360.289 599.44 359.052 593.723 359.052 587.152C359.052 580.624 360.268 574.971 362.7 570.192C365.132 565.413 368.353 561.744 372.364 559.184C376.417 556.581 380.855 555.28 385.676 555.28C390.156 555.28 394.081 556.368 397.452 558.544C400.865 560.72 403.511 563.856 405.388 567.952C407.265 572.048 408.204 576.997 408.204 582.8H404.364C404.364 578.747 403.553 575.333 401.932 572.56C400.353 569.787 398.284 567.696 395.724 566.288C393.164 564.837 390.412 564.112 387.468 564.112C384.14 564.112 381.089 565.051 378.316 566.928C375.585 568.763 373.388 571.408 371.724 574.864C370.103 578.277 369.292 582.373 369.292 587.152C369.292 592.016 370.103 596.197 371.724 599.696C373.388 603.195 375.585 605.883 378.316 607.76C381.089 609.637 384.14 610.576 387.468 610.576C390.241 610.576 392.908 609.851 395.468 608.4C398.071 606.949 400.204 604.837 401.868 602.064C403.532 599.248 404.364 595.856 404.364 591.888H408.204C408.204 597.819 407.223 602.853 405.26 606.992C403.34 611.088 400.716 614.203 397.388 616.336C394.103 618.469 390.412 619.536 386.316 619.536ZM406.028 618L404.364 603.664V530.704H414.348V618H406.028ZM462.447 619.536C456.943 619.536 452.036 618.32 447.727 615.888C443.46 613.456 440.09 609.851 437.615 605.072C435.14 600.293 433.903 594.405 433.903 587.408C433.903 580.368 435.14 574.48 437.615 569.744C440.09 564.965 443.46 561.36 447.727 558.928C452.036 556.496 456.943 555.28 462.447 555.28C467.908 555.28 472.772 556.496 477.039 558.928C481.348 561.36 484.719 564.965 487.151 569.744C489.626 574.48 490.863 580.368 490.863 587.408C490.863 594.405 489.626 600.293 487.151 605.072C484.719 609.851 481.348 613.456 477.039 615.888C472.772 618.32 467.908 619.536 462.447 619.536ZM462.191 610.832C466.159 610.832 469.53 609.893 472.303 608.016C475.076 606.096 477.167 603.387 478.575 599.888C480.026 596.389 480.751 592.229 480.751 587.408C480.751 580.112 479.236 574.373 476.207 570.192C473.178 565.968 468.676 563.856 462.703 563.856C458.692 563.856 455.3 564.816 452.527 566.736C449.796 568.613 447.706 571.323 446.255 574.864C444.847 578.363 444.143 582.544 444.143 587.408C444.143 594.619 445.658 600.336 448.687 604.56C451.759 608.741 456.26 610.832 462.191 610.832ZM529.119 619.536C525.791 619.536 522.804 618.896 520.159 617.616C517.514 616.336 515.423 614.416 513.887 611.856C512.351 609.296 511.583 606.096 511.583 602.256V539.792H521.439V602C521.439 608.315 524.383 611.472 530.271 611.472C532.02 611.472 533.706 611.28 535.327 610.896C536.991 610.512 538.847 609.936 540.895 609.168L542.303 616.336C540.127 617.275 537.951 618.043 535.775 618.64C533.642 619.237 531.423 619.536 529.119 619.536ZM501.727 563.728V556.816H540.767V563.728H501.727ZM580.316 619.536C575.367 619.536 570.823 618.213 566.684 615.568C562.545 612.88 559.239 609.125 556.764 604.304C554.289 599.44 553.052 593.723 553.052 587.152C553.052 580.624 554.268 574.971 556.7 570.192C559.132 565.413 562.353 561.744 566.364 559.184C570.417 556.581 574.855 555.28 579.676 555.28C584.156 555.28 588.081 556.368 591.452 558.544C594.865 560.72 597.511 563.856 599.388 567.952C601.265 572.048 602.204 576.997 602.204 582.8H598.364C598.364 578.747 597.553 575.333 595.932 572.56C594.353 569.787 592.284 567.696 589.724 566.288C587.164 564.837 584.412 564.112 581.468 564.112C578.14 564.112 575.089 565.051 572.316 566.928C569.585 568.763 567.388 571.408 565.724 574.864C564.103 578.277 563.292 582.373 563.292 587.152C563.292 592.016 564.103 596.197 565.724 599.696C567.388 603.195 569.585 605.883 572.316 607.76C575.089 609.637 578.14 610.576 581.468 610.576C584.241 610.576 586.908 609.851 589.468 608.4C592.071 606.949 594.204 604.837 595.868 602.064C597.532 599.248 598.364 595.856 598.364 591.888H602.204C602.204 597.819 601.223 602.853 599.26 606.992C597.34 611.088 594.716 614.203 591.388 616.336C588.103 618.469 584.412 619.536 580.316 619.536ZM600.028 618L598.364 603.664V530.704H608.348V618H600.028ZM655.551 619.536C650.26 619.536 645.524 618.192 641.343 615.504C637.204 612.773 633.919 608.997 631.487 604.176C629.098 599.355 627.903 593.808 627.903 587.536C627.903 580.837 629.098 575.077 631.487 570.256C633.876 565.435 637.14 561.744 641.279 559.184C645.46 556.581 650.218 555.28 655.551 555.28C660.202 555.28 664.17 556.219 667.455 558.096C670.74 559.973 673.386 562.512 675.391 565.712C677.396 568.912 678.783 572.539 679.551 576.592C680.362 580.603 680.596 584.763 680.255 589.072H635.967V582.928H673.663L670.719 584.848C670.847 582.331 670.698 579.813 670.271 577.296C669.887 574.779 669.14 572.475 668.031 570.384C666.922 568.251 665.364 566.544 663.359 565.264C661.354 563.984 658.794 563.344 655.679 563.344C651.754 563.344 648.468 564.347 645.823 566.352C643.178 568.357 641.194 571.003 639.871 574.288C638.548 577.531 637.887 581.051 637.887 584.848V588.944C637.887 593.211 638.527 597.029 639.807 600.4C641.13 603.771 643.092 606.437 645.695 608.4C648.298 610.363 651.583 611.344 655.551 611.344C659.519 611.344 662.783 610.384 665.343 608.464C667.903 606.544 669.46 603.707 670.015 599.952H680.383C679.743 604.005 678.292 607.504 676.031 610.448C673.77 613.349 670.89 615.589 667.391 617.168C663.892 618.747 659.946 619.536 655.551 619.536ZM689.429 556.816H700.821L720.021 609.424H718.613L737.813 556.816H749.205L724.757 618H713.877L689.429 556.816Z"/>
		</mask>
		<path d="M386.316 619.536C381.367 619.536 376.823 618.213 372.684 615.568C368.545 612.88 365.239 609.125 362.764 604.304C360.289 599.44 359.052 593.723 359.052 587.152C359.052 580.624 360.268 574.971 362.7 570.192C365.132 565.413 368.353 561.744 372.364 559.184C376.417 556.581 380.855 555.28 385.676 555.28C390.156 555.28 394.081 556.368 397.452 558.544C400.865 560.72 403.511 563.856 405.388 567.952C407.265 572.048 408.204 576.997 408.204 582.8H404.364C404.364 578.747 403.553 575.333 401.932 572.56C400.353 569.787 398.284 567.696 395.724 566.288C393.164 564.837 390.412 564.112 387.468 564.112C384.14 564.112 381.089 565.051 378.316 566.928C375.585 568.763 373.388 571.408 371.724 574.864C370.103 578.277 369.292 582.373 369.292 587.152C369.292 592.016 370.103 596.197 371.724 599.696C373.388 603.195 375.585 605.883 378.316 607.76C381.089 609.637 384.14 610.576 387.468 610.576C390.241 610.576 392.908 609.851 395.468 608.4C398.071 606.949 400.204 604.837 401.868 602.064C403.532 599.248 404.364 595.856 404.364 591.888H408.204C408.204 597.819 407.223 602.853 405.26 606.992C403.34 611.088 400.716 614.203 397.388 616.336C394.103 618.469 390.412 619.536 386.316 619.536ZM406.028 618L404.364 603.664V530.704H414.348V618H406.028ZM462.447 619.536C456.943 619.536 452.036 618.32 447.727 615.888C443.46 613.456 440.09 609.851 437.615 605.072C435.14 600.293 433.903 594.405 433.903 587.408C433.903 580.368 435.14 574.48 437.615 569.744C440.09 564.965 443.46 561.36 447.727 558.928C452.036 556.496 456.943 555.28 462.447 555.28C467.908 555.28 472.772 556.496 477.039 558.928C481.348 561.36 484.719 564.965 487.151 569.744C489.626 574.48 490.863 580.368 490.863 587.408C490.863 594.405 489.626 600.293 487.151 605.072C484.719 609.851 481.348 613.456 477.039 615.888C472.772 618.32 467.908 619.536 462.447 619.536ZM462.191 610.832C466.159 610.832 469.53 609.893 472.303 608.016C475.076 606.096 477.167 603.387 478.575 599.888C480.026 596.389 480.751 592.229 480.751 587.408C480.751 580.112 479.236 574.373 476.207 570.192C473.178 565.968 468.676 563.856 462.703 563.856C458.692 563.856 455.3 564.816 452.527 566.736C449.796 568.613 447.706 571.323 446.255 574.864C444.847 578.363 444.143 582.544 444.143 587.408C444.143 594.619 445.658 600.336 448.687 604.56C451.759 608.741 456.26 610.832 462.191 610.832ZM529.119 619.536C525.791 619.536 522.804 618.896 520.159 617.616C517.514 616.336 515.423 614.416 513.887 611.856C512.351 609.296 511.583 606.096 511.583 602.256V539.792H521.439V602C521.439 608.315 524.383 611.472 530.271 611.472C532.02 611.472 533.706 611.28 535.327 610.896C536.991 610.512 538.847 609.936 540.895 609.168L542.303 616.336C540.127 617.275 537.951 618.043 535.775 618.64C533.642 619.237 531.423 619.536 529.119 619.536ZM501.727 563.728V556.816H540.767V563.728H501.727ZM580.316 619.536C575.367 619.536 570.823 618.213 566.684 615.568C562.545 612.88 559.239 609.125 556.764 604.304C554.289 599.44 553.052 593.723 553.052 587.152C553.052 580.624 554.268 574.971 556.7 570.192C559.132 565.413 562.353 561.744 566.364 559.184C570.417 556.581 574.855 555.28 579.676 555.28C584.156 555.28 588.081 556.368 591.452 558.544C594.865 560.72 597.511 563.856 599.388 567.952C601.265 572.048 602.204 576.997 602.204 582.8H598.364C598.364 578.747 597.553 575.333 595.932 572.56C594.353 569.787 592.284 567.696 589.724 566.288C587.164 564.837 584.412 564.112 581.468 564.112C578.14 564.112 575.089 565.051 572.316 566.928C569.585 568.763 567.388 571.408 565.724 574.864C564.103 578.277 563.292 582.373 563.292 587.152C563.292 592.016 564.103 596.197 565.724 599.696C567.388 603.195 569.585 605.883 572.316 607.76C575.089 609.637 578.14 610.576 581.468 610.576C584.241 610.576 586.908 609.851 589.468 608.4C592.071 606.949 594.204 604.837 595.868 602.064C597.532 599.248 598.364 595.856 598.364 591.888H602.204C602.204 597.819 601.223 602.853 599.26 606.992C597.34 611.088 594.716 614.203 591.388 616.336C588.103 618.469 584.412 619.536 580.316 619.536ZM600.028 618L598.364 603.664V530.704H608.348V618H600.028ZM655.551 619.536C650.26 619.536 645.524 618.192 641.343 615.504C637.204 612.773 633.919 608.997 631.487 604.176C629.098 599.355 627.903 593.808 627.903 587.536C627.903 580.837 629.098 575.077 631.487 570.256C633.876 565.435 637.14 561.744 641.279 559.184C645.46 556.581 650.218 555.28 655.551 555.28C660.202 555.28 664.17 556.219 667.455 558.096C670.74 559.973 673.386 562.512 675.391 565.712C677.396 568.912 678.783 572.539 679.551 576.592C680.362 580.603 680.596 584.763 680.255 589.072H635.967V582.928H673.663L670.719 584.848C670.847 582.331 670.698 579.813 670.271 577.296C669.887 574.779 669.14 572.475 668.031 570.384C666.922 568.251 665.364 566.544 663.359 565.264C661.354 563.984 658.794 563.344 655.679 563.344C651.754 563.344 648.468 564.347 645.823 566.352C643.178 568.357 641.194 571.003 639.871 574.288C638.548 577.531 637.887 581.051 637.887 584.848V588.944C637.887 593.211 638.527 597.029 639.807 600.4C641.13 603.771 643.092 606.437 645.695 608.4C648.298 610.363 651.583 611.344 655.551 611.344C659.519 611.344 662.783 610.384 665.343 608.464C667.903 606.544 669.46 603.707 670.015 599.952H680.383C679.743 604.005 678.292 607.504 676.031 610.448C673.77 613.349 670.89 615.589 667.391 617.168C663.892 618.747 659.946 619.536 655.551 619.536ZM689.429 556.816H700.821L720.021 609.424H718.613L737.813 556.816H749.205L724.757 618H713.877L689.429 556.816Z" fill="white"/>
		<path d="M372.684 615.568L372.139 616.407L372.145 616.411L372.684 615.568ZM362.764 604.304L361.873 604.757L361.874 604.761L362.764 604.304ZM362.7 570.192L363.591 570.646L363.591 570.646L362.7 570.192ZM372.364 559.184L372.902 560.027L372.904 560.025L372.364 559.184ZM397.452 558.544L396.91 559.384L396.914 559.387L397.452 558.544ZM405.388 567.952L406.297 567.535L406.297 567.535L405.388 567.952ZM408.204 582.8V583.8H409.204V582.8H408.204ZM404.364 582.8H403.364V583.8H404.364V582.8ZM401.932 572.56L401.063 573.055L401.069 573.065L401.932 572.56ZM395.724 566.288L395.231 567.158L395.242 567.164L395.724 566.288ZM378.316 566.928L378.874 567.758L378.877 567.756L378.316 566.928ZM371.724 574.864L370.823 574.43L370.821 574.435L371.724 574.864ZM371.724 599.696L370.817 600.116L370.821 600.126L371.724 599.696ZM378.316 607.76L377.749 608.584L377.755 608.588L378.316 607.76ZM395.468 608.4L394.981 607.526L394.975 607.53L395.468 608.4ZM401.868 602.064L402.726 602.579L402.729 602.573L401.868 602.064ZM404.364 591.888V590.888H403.364V591.888H404.364ZM408.204 591.888H409.204V590.888H408.204V591.888ZM405.26 606.992L404.356 606.564L404.355 606.568L405.26 606.992ZM397.388 616.336L396.848 615.494L396.843 615.497L397.388 616.336ZM406.028 618L405.035 618.115L405.137 619H406.028V618ZM404.364 603.664H403.364V603.722L403.371 603.779L404.364 603.664ZM404.364 530.704V529.704H403.364V530.704H404.364ZM414.348 530.704H415.348V529.704H414.348V530.704ZM414.348 618V619H415.348V618H414.348ZM386.316 619.536V618.536C381.556 618.536 377.199 617.267 373.223 614.725L372.684 615.568L372.145 616.411C376.446 619.16 381.177 620.536 386.316 620.536V619.536ZM372.684 615.568L373.229 614.729C369.25 612.146 366.057 608.529 363.654 603.847L362.764 604.304L361.874 604.761C364.421 609.722 367.84 613.614 372.139 616.407L372.684 615.568ZM362.764 604.304L363.655 603.851C361.265 599.153 360.052 593.597 360.052 587.152H359.052H358.052C358.052 593.848 359.313 599.727 361.873 604.757L362.764 604.304ZM359.052 587.152H360.052C360.052 580.748 361.245 575.256 363.591 570.646L362.7 570.192L361.809 569.738C359.291 574.685 358.052 580.5 358.052 587.152H359.052ZM362.7 570.192L363.591 570.646C365.953 566.005 369.06 562.479 372.902 560.027L372.364 559.184L371.826 558.341C367.647 561.009 364.311 564.821 361.809 569.738L362.7 570.192ZM372.364 559.184L372.904 560.025C376.796 557.526 381.046 556.28 385.676 556.28V555.28V554.28C380.663 554.28 376.038 555.636 371.824 558.343L372.364 559.184ZM385.676 555.28V556.28C389.987 556.28 393.719 557.324 396.91 559.384L397.452 558.544L397.994 557.704C394.444 555.412 390.325 554.28 385.676 554.28V555.28ZM397.452 558.544L396.914 559.387C400.147 561.448 402.672 564.427 404.479 568.369L405.388 567.952L406.297 567.535C404.349 563.285 401.583 559.992 397.99 557.701L397.452 558.544ZM405.388 567.952L404.479 568.369C406.282 572.302 407.204 577.101 407.204 582.8H408.204H409.204C409.204 576.893 408.249 571.794 406.297 567.535L405.388 567.952ZM408.204 582.8V581.8H404.364V582.8V583.8H408.204V582.8ZM404.364 582.8H405.364C405.364 578.615 404.527 575.017 402.795 572.055L401.932 572.56L401.069 573.065C402.58 575.65 403.364 578.878 403.364 582.8H404.364ZM401.932 572.56L402.801 572.065C401.14 569.147 398.943 566.917 396.206 565.412L395.724 566.288L395.242 567.164C397.626 568.475 399.567 570.427 401.063 573.055L401.932 572.56ZM395.724 566.288L396.217 565.418C393.507 563.882 390.585 563.112 387.468 563.112V564.112V565.112C390.239 565.112 392.821 565.793 395.231 567.158L395.724 566.288ZM387.468 564.112V563.112C383.939 563.112 380.693 564.111 377.755 566.1L378.316 566.928L378.877 567.756C381.486 565.99 384.341 565.112 387.468 565.112V564.112ZM378.316 566.928L377.758 566.098C374.857 568.047 372.551 570.841 370.823 574.43L371.724 574.864L372.625 575.298C374.225 571.975 376.314 569.478 378.874 567.758L378.316 566.928ZM371.724 574.864L370.821 574.435C369.121 578.013 368.292 582.263 368.292 587.152H369.292H370.292C370.292 582.484 371.084 578.542 372.627 575.293L371.724 574.864ZM369.292 587.152H368.292C368.292 592.124 369.121 596.456 370.817 600.116L371.724 599.696L372.631 599.276C371.085 595.938 370.292 591.908 370.292 587.152H369.292ZM371.724 599.696L370.821 600.126C372.548 603.756 374.851 606.591 377.749 608.584L378.316 607.76L378.883 606.936C376.32 605.174 374.228 602.633 372.627 599.266L371.724 599.696ZM378.316 607.76L377.755 608.588C380.693 610.577 383.939 611.576 387.468 611.576V610.576V609.576C384.341 609.576 381.486 608.698 378.877 606.932L378.316 607.76ZM387.468 610.576V611.576C390.425 611.576 393.26 610.801 395.961 609.27L395.468 608.4L394.975 607.53C392.556 608.901 390.058 609.576 387.468 609.576V610.576ZM395.468 608.4L395.955 609.273C398.723 607.73 400.979 605.489 402.725 602.578L401.868 602.064L401.011 601.55C399.429 604.186 397.418 606.168 394.981 607.527L395.468 608.4ZM401.868 602.064L402.729 602.573C404.502 599.573 405.364 595.997 405.364 591.888H404.364H403.364C403.364 595.715 402.562 598.923 401.007 601.555L401.868 602.064ZM404.364 591.888V592.888H408.204V591.888V590.888H404.364V591.888ZM408.204 591.888H407.204C407.204 597.712 406.24 602.592 404.356 606.564L405.26 606.992L406.164 607.42C408.206 603.115 409.204 597.925 409.204 591.888H408.204ZM405.26 606.992L404.355 606.568C402.503 610.518 399.996 613.477 396.848 615.494L397.388 616.336L397.928 617.178C401.436 614.929 404.177 611.658 406.165 607.416L405.26 606.992ZM397.388 616.336L396.843 615.497C393.728 617.52 390.228 618.536 386.316 618.536V619.536V620.536C390.596 620.536 394.478 619.418 397.933 617.175L397.388 616.336ZM406.028 618L407.021 617.885L405.357 603.549L404.364 603.664L403.371 603.779L405.035 618.115L406.028 618ZM404.364 603.664H405.364V530.704H404.364H403.364V603.664H404.364ZM404.364 530.704V531.704H414.348V530.704V529.704H404.364V530.704ZM414.348 530.704H413.348V618H414.348H415.348V530.704H414.348ZM414.348 618V617H406.028V618V619H414.348V618ZM447.727 615.888L447.232 616.757L447.236 616.759L447.727 615.888ZM437.615 605.072L438.503 604.612L438.503 604.612L437.615 605.072ZM437.615 569.744L438.501 570.207L438.503 570.204L437.615 569.744ZM447.727 558.928L447.236 558.057L447.232 558.059L447.727 558.928ZM477.039 558.928L476.544 559.797L476.548 559.799L477.039 558.928ZM487.151 569.744L486.26 570.198L486.265 570.207L487.151 569.744ZM487.151 605.072L486.263 604.612L486.26 604.618L487.151 605.072ZM477.039 615.888L476.548 615.017L476.544 615.019L477.039 615.888ZM472.303 608.016L472.864 608.844L472.872 608.838L472.303 608.016ZM478.575 599.888L477.651 599.505L477.647 599.515L478.575 599.888ZM476.207 570.192L475.394 570.775L475.397 570.779L476.207 570.192ZM452.527 566.736L453.094 567.56L453.096 567.558L452.527 566.736ZM446.255 574.864L445.33 574.485L445.327 574.491L446.255 574.864ZM448.687 604.56L447.874 605.143L447.881 605.152L448.687 604.56ZM462.447 619.536V618.536C457.095 618.536 452.362 617.355 448.218 615.017L447.727 615.888L447.236 616.759C451.711 619.285 456.791 620.536 462.447 620.536V619.536ZM447.727 615.888L448.222 615.019C444.139 612.692 440.898 609.237 438.503 604.612L437.615 605.072L436.727 605.532C439.282 610.465 442.782 614.22 447.232 616.757L447.727 615.888ZM437.615 605.072L438.503 604.612C436.121 600.012 434.903 594.292 434.903 587.408H433.903H432.903C432.903 594.519 434.16 600.575 436.727 605.532L437.615 605.072ZM433.903 587.408H434.903C434.903 580.48 436.121 574.762 438.501 570.207L437.615 569.744L436.729 569.281C434.159 574.198 432.903 580.256 432.903 587.408H433.903ZM437.615 569.744L438.503 570.204C440.898 565.579 444.139 562.124 448.222 559.797L447.727 558.928L447.232 558.059C442.782 560.596 439.282 564.351 436.727 569.284L437.615 569.744ZM447.727 558.928L448.218 559.799C452.362 557.461 457.095 556.28 462.447 556.28V555.28V554.28C456.791 554.28 451.711 555.531 447.236 558.057L447.727 558.928ZM462.447 555.28V556.28C467.755 556.28 472.444 557.46 476.544 559.797L477.039 558.928L477.534 558.059C473.1 555.532 468.062 554.28 462.447 554.28V555.28ZM477.039 558.928L476.548 559.799C480.671 562.126 483.909 565.579 486.26 570.198L487.151 569.744L488.042 569.29C485.529 564.352 482.026 560.594 477.53 558.057L477.039 558.928ZM487.151 569.744L486.265 570.207C488.645 574.762 489.863 580.48 489.863 587.408H490.863H491.863C491.863 580.256 490.607 574.198 488.037 569.281L487.151 569.744ZM490.863 587.408H489.863C489.863 594.292 488.645 600.012 486.263 604.612L487.151 605.072L488.039 605.532C490.606 600.575 491.863 594.519 491.863 587.408H490.863ZM487.151 605.072L486.26 604.618C483.909 609.237 480.671 612.69 476.548 615.017L477.039 615.888L477.53 616.759C482.026 614.222 485.529 610.464 488.042 605.526L487.151 605.072ZM477.039 615.888L476.544 615.019C472.444 617.356 467.755 618.536 462.447 618.536V619.536V620.536C468.062 620.536 473.1 619.284 477.534 616.757L477.039 615.888ZM462.191 610.832V611.832C466.321 611.832 469.896 610.853 472.864 608.844L472.303 608.016L471.742 607.188C469.163 608.934 465.997 609.832 462.191 609.832V610.832ZM472.303 608.016L472.872 608.838C475.825 606.794 478.031 603.919 479.503 600.261L478.575 599.888L477.647 599.515C476.303 602.854 474.328 605.398 471.734 607.194L472.303 608.016ZM478.575 599.888L479.499 600.271C481.011 596.623 481.751 592.326 481.751 587.408H480.751H479.751C479.751 592.132 479.04 596.156 477.651 599.505L478.575 599.888ZM480.751 587.408H481.751C481.751 579.986 480.211 574.015 477.017 569.605L476.207 570.192L475.397 570.779C478.261 574.732 479.751 580.238 479.751 587.408H480.751ZM476.207 570.192L477.02 569.609C473.772 565.081 468.943 562.856 462.703 562.856V563.856V564.856C468.409 564.856 472.583 566.855 475.394 570.775L476.207 570.192ZM462.703 563.856V562.856C458.528 562.856 454.928 563.858 451.958 565.914L452.527 566.736L453.096 567.558C455.673 565.774 458.856 564.856 462.703 564.856V563.856ZM452.527 566.736L451.96 565.912C449.046 567.916 446.842 570.792 445.33 574.485L446.255 574.864L447.18 575.243C448.569 571.853 450.547 569.311 453.094 567.56L452.527 566.736ZM446.255 574.864L445.327 574.491C443.86 578.137 443.143 582.451 443.143 587.408H444.143H445.143C445.143 582.637 445.834 578.588 447.183 575.237L446.255 574.864ZM444.143 587.408H443.143C443.143 594.749 444.684 600.694 447.874 605.143L448.687 604.56L449.5 603.977C446.631 599.978 445.143 594.488 445.143 587.408H444.143ZM448.687 604.56L447.881 605.152C451.17 609.629 455.994 611.832 462.191 611.832V610.832V609.832C456.526 609.832 452.348 607.853 449.493 603.968L448.687 604.56ZM520.159 617.616L519.723 618.516L520.159 617.616ZM513.887 611.856L514.744 611.342L514.744 611.342L513.887 611.856ZM511.583 539.792V538.792H510.583V539.792H511.583ZM521.439 539.792H522.439V538.792H521.439V539.792ZM535.327 610.896L535.102 609.922L535.097 609.923L535.327 610.896ZM540.895 609.168L541.876 608.975L541.649 607.817L540.544 608.232L540.895 609.168ZM542.303 616.336L542.699 617.254L543.44 616.935L543.284 616.143L542.303 616.336ZM535.775 618.64L535.51 617.676L535.505 617.677L535.775 618.64ZM501.727 563.728H500.727V564.728H501.727V563.728ZM501.727 556.816V555.816H500.727V556.816H501.727ZM540.767 556.816H541.767V555.816H540.767V556.816ZM540.767 563.728V564.728H541.767V563.728H540.767ZM529.119 619.536V618.536C525.922 618.536 523.087 617.922 520.595 616.716L520.159 617.616L519.723 618.516C522.522 619.87 525.66 620.536 529.119 620.536V619.536ZM520.159 617.616L520.595 616.716C518.127 615.522 516.182 613.737 514.744 611.342L513.887 611.856L513.03 612.37C514.664 615.095 516.9 617.15 519.723 618.516L520.159 617.616ZM513.887 611.856L514.744 611.342C513.325 608.975 512.583 605.966 512.583 602.256H511.583H510.583C510.583 606.226 511.377 609.617 513.03 612.37L513.887 611.856ZM511.583 602.256H512.583V539.792H511.583H510.583V602.256H511.583ZM511.583 539.792V540.792H521.439V539.792V538.792H511.583V539.792ZM521.439 539.792H520.439V602H521.439H522.439V539.792H521.439ZM521.439 602H520.439C520.439 605.295 521.206 607.952 522.916 609.786C524.638 611.633 527.154 612.472 530.271 612.472V611.472V610.472C527.5 610.472 525.6 609.732 524.378 608.422C523.144 607.099 522.439 605.02 522.439 602H521.439ZM530.271 611.472V612.472C532.094 612.472 533.857 612.272 535.557 611.869L535.327 610.896L535.097 609.923C533.554 610.288 531.947 610.472 530.271 610.472V611.472ZM535.327 610.896L535.552 611.87C537.269 611.474 539.168 610.884 541.246 610.104L540.895 609.168L540.544 608.232C538.526 608.988 536.713 609.55 535.102 609.922L535.327 610.896ZM540.895 609.168L539.914 609.361L541.322 616.529L542.303 616.336L543.284 616.143L541.876 608.975L540.895 609.168ZM542.303 616.336L541.907 615.418C539.771 616.339 537.639 617.091 535.51 617.676L535.775 618.64L536.04 619.604C538.263 618.994 540.483 618.21 542.699 617.254L542.303 616.336ZM535.775 618.64L535.505 617.677C533.463 618.249 531.336 618.536 529.119 618.536V619.536V620.536C531.51 620.536 533.82 620.226 536.045 619.603L535.775 618.64ZM501.727 563.728H502.727V556.816H501.727H500.727V563.728H501.727ZM501.727 556.816V557.816H540.767V556.816V555.816H501.727V556.816ZM540.767 556.816H539.767V563.728H540.767H541.767V556.816H540.767ZM540.767 563.728V562.728H501.727V563.728V564.728H540.767V563.728ZM566.684 615.568L566.139 616.407L566.145 616.411L566.684 615.568ZM556.764 604.304L555.873 604.757L555.874 604.761L556.764 604.304ZM556.7 570.192L557.591 570.646L557.591 570.646L556.7 570.192ZM566.364 559.184L566.902 560.027L566.904 560.025L566.364 559.184ZM591.452 558.544L590.91 559.384L590.914 559.387L591.452 558.544ZM599.388 567.952L600.297 567.535L600.297 567.535L599.388 567.952ZM602.204 582.8V583.8H603.204V582.8H602.204ZM598.364 582.8H597.364V583.8H598.364V582.8ZM595.932 572.56L595.063 573.055L595.069 573.065L595.932 572.56ZM589.724 566.288L589.231 567.158L589.242 567.164L589.724 566.288ZM572.316 566.928L572.874 567.758L572.877 567.756L572.316 566.928ZM565.724 574.864L564.823 574.43L564.821 574.435L565.724 574.864ZM565.724 599.696L564.817 600.116L564.821 600.126L565.724 599.696ZM572.316 607.76L571.749 608.584L571.755 608.588L572.316 607.76ZM589.468 608.4L588.981 607.526L588.975 607.53L589.468 608.4ZM595.868 602.064L596.726 602.579L596.729 602.573L595.868 602.064ZM598.364 591.888V590.888H597.364V591.888H598.364ZM602.204 591.888H603.204V590.888H602.204V591.888ZM599.26 606.992L598.356 606.564L598.355 606.568L599.26 606.992ZM591.388 616.336L590.848 615.494L590.843 615.497L591.388 616.336ZM600.028 618L599.035 618.115L599.137 619H600.028V618ZM598.364 603.664H597.364V603.722L597.371 603.779L598.364 603.664ZM598.364 530.704V529.704H597.364V530.704H598.364ZM608.348 530.704H609.348V529.704H608.348V530.704ZM608.348 618V619H609.348V618H608.348ZM580.316 619.536V618.536C575.556 618.536 571.199 617.267 567.223 614.725L566.684 615.568L566.145 616.411C570.446 619.16 575.177 620.536 580.316 620.536V619.536ZM566.684 615.568L567.229 614.729C563.25 612.146 560.057 608.529 557.654 603.847L556.764 604.304L555.874 604.761C558.421 609.722 561.84 613.614 566.139 616.407L566.684 615.568ZM556.764 604.304L557.655 603.851C555.265 599.153 554.052 593.597 554.052 587.152H553.052H552.052C552.052 593.848 553.313 599.727 555.873 604.757L556.764 604.304ZM553.052 587.152H554.052C554.052 580.748 555.245 575.256 557.591 570.646L556.7 570.192L555.809 569.738C553.291 574.685 552.052 580.5 552.052 587.152H553.052ZM556.7 570.192L557.591 570.646C559.953 566.005 563.06 562.479 566.902 560.027L566.364 559.184L565.826 558.341C561.647 561.009 558.311 564.821 555.809 569.738L556.7 570.192ZM566.364 559.184L566.904 560.025C570.796 557.526 575.046 556.28 579.676 556.28V555.28V554.28C574.663 554.28 570.038 555.636 565.824 558.343L566.364 559.184ZM579.676 555.28V556.28C583.987 556.28 587.719 557.324 590.91 559.384L591.452 558.544L591.994 557.704C588.444 555.412 584.325 554.28 579.676 554.28V555.28ZM591.452 558.544L590.914 559.387C594.147 561.448 596.672 564.427 598.479 568.369L599.388 567.952L600.297 567.535C598.349 563.285 595.583 559.992 591.99 557.701L591.452 558.544ZM599.388 567.952L598.479 568.369C600.282 572.302 601.204 577.101 601.204 582.8H602.204H603.204C603.204 576.893 602.249 571.794 600.297 567.535L599.388 567.952ZM602.204 582.8V581.8H598.364V582.8V583.8H602.204V582.8ZM598.364 582.8H599.364C599.364 578.615 598.527 575.017 596.795 572.055L595.932 572.56L595.069 573.065C596.58 575.65 597.364 578.878 597.364 582.8H598.364ZM595.932 572.56L596.801 572.065C595.14 569.147 592.943 566.917 590.206 565.412L589.724 566.288L589.242 567.164C591.626 568.475 593.567 570.427 595.063 573.055L595.932 572.56ZM589.724 566.288L590.217 565.418C587.507 563.882 584.585 563.112 581.468 563.112V564.112V565.112C584.239 565.112 586.821 565.793 589.231 567.158L589.724 566.288ZM581.468 564.112V563.112C577.939 563.112 574.693 564.111 571.755 566.1L572.316 566.928L572.877 567.756C575.486 565.99 578.341 565.112 581.468 565.112V564.112ZM572.316 566.928L571.758 566.098C568.857 568.047 566.551 570.841 564.823 574.43L565.724 574.864L566.625 575.298C568.225 571.975 570.314 569.478 572.874 567.758L572.316 566.928ZM565.724 574.864L564.821 574.435C563.121 578.013 562.292 582.263 562.292 587.152H563.292H564.292C564.292 582.484 565.084 578.542 566.627 575.293L565.724 574.864ZM563.292 587.152H562.292C562.292 592.124 563.121 596.456 564.817 600.116L565.724 599.696L566.631 599.276C565.085 595.938 564.292 591.908 564.292 587.152H563.292ZM565.724 599.696L564.821 600.126C566.548 603.756 568.851 606.591 571.749 608.584L572.316 607.76L572.883 606.936C570.32 605.174 568.228 602.633 566.627 599.266L565.724 599.696ZM572.316 607.76L571.755 608.588C574.693 610.577 577.939 611.576 581.468 611.576V610.576V609.576C578.341 609.576 575.486 608.698 572.877 606.932L572.316 607.76ZM581.468 610.576V611.576C584.425 611.576 587.26 610.801 589.961 609.27L589.468 608.4L588.975 607.53C586.556 608.901 584.058 609.576 581.468 609.576V610.576ZM589.468 608.4L589.955 609.273C592.723 607.73 594.979 605.489 596.725 602.578L595.868 602.064L595.011 601.55C593.429 604.186 591.418 606.168 588.981 607.527L589.468 608.4ZM595.868 602.064L596.729 602.573C598.502 599.573 599.364 595.997 599.364 591.888H598.364H597.364C597.364 595.715 596.562 598.923 595.007 601.555L595.868 602.064ZM598.364 591.888V592.888H602.204V591.888V590.888H598.364V591.888ZM602.204 591.888H601.204C601.204 597.712 600.24 602.592 598.356 606.564L599.26 606.992L600.164 607.42C602.206 603.115 603.204 597.925 603.204 591.888H602.204ZM599.26 606.992L598.355 606.568C596.503 610.518 593.996 613.477 590.848 615.494L591.388 616.336L591.928 617.178C595.436 614.929 598.177 611.658 600.165 607.416L599.26 606.992ZM591.388 616.336L590.843 615.497C587.728 617.52 584.228 618.536 580.316 618.536V619.536V620.536C584.596 620.536 588.478 619.418 591.933 617.175L591.388 616.336ZM600.028 618L601.021 617.885L599.357 603.549L598.364 603.664L597.371 603.779L599.035 618.115L600.028 618ZM598.364 603.664H599.364V530.704H598.364H597.364V603.664H598.364ZM598.364 530.704V531.704H608.348V530.704V529.704H598.364V530.704ZM608.348 530.704H607.348V618H608.348H609.348V530.704H608.348ZM608.348 618V617H600.028V618V619H608.348V618ZM641.343 615.504L640.792 616.339L640.802 616.345L641.343 615.504ZM631.487 604.176L630.591 604.62L630.594 604.626L631.487 604.176ZM631.487 570.256L630.591 569.812L630.591 569.812L631.487 570.256ZM641.279 559.184L641.805 560.034L641.807 560.033L641.279 559.184ZM667.455 558.096L667.951 557.228L667.951 557.228L667.455 558.096ZM679.551 576.592L678.568 576.778L678.571 576.79L679.551 576.592ZM680.255 589.072V590.072H681.179L681.252 589.151L680.255 589.072ZM635.967 589.072H634.967V590.072H635.967V589.072ZM635.967 582.928V581.928H634.967V582.928H635.967ZM673.663 582.928L674.209 583.766L677.027 581.928H673.663V582.928ZM670.719 584.848L669.72 584.797L669.621 586.758L671.265 585.686L670.719 584.848ZM670.271 577.296L669.282 577.447L669.284 577.455L669.285 577.463L670.271 577.296ZM668.031 570.384L667.144 570.845L667.148 570.853L668.031 570.384ZM663.359 565.264L663.897 564.421L663.897 564.421L663.359 565.264ZM639.871 574.288L640.797 574.666L640.799 574.661L639.871 574.288ZM639.807 600.4L638.872 600.755L638.876 600.765L639.807 600.4ZM645.695 608.4L646.297 607.602L646.297 607.602L645.695 608.4ZM670.015 599.952V598.952H669.152L669.026 599.806L670.015 599.952ZM680.383 599.952L681.371 600.108L681.553 598.952H680.383V599.952ZM676.031 610.448L676.82 611.063L676.824 611.057L676.031 610.448ZM655.551 619.536V618.536C650.439 618.536 645.893 617.24 641.884 614.663L641.343 615.504L640.802 616.345C645.155 619.144 650.082 620.536 655.551 620.536V619.536ZM641.343 615.504L641.894 614.669C637.913 612.043 634.74 608.405 632.38 603.726L631.487 604.176L630.594 604.626C633.098 609.589 636.495 613.504 640.792 616.339L641.343 615.504ZM631.487 604.176L632.383 603.732C630.073 599.07 628.903 593.679 628.903 587.536H627.903H626.903C626.903 593.937 628.123 599.64 630.591 604.62L631.487 604.176ZM627.903 587.536H628.903C628.903 580.954 630.077 575.354 632.383 570.7L631.487 570.256L630.591 569.812C628.119 574.801 626.903 580.72 626.903 587.536H627.903ZM631.487 570.256L632.383 570.7C634.698 566.028 637.842 562.486 641.805 560.034L641.279 559.184L640.753 558.334C636.439 561.002 633.054 564.842 630.591 569.812L631.487 570.256ZM641.279 559.184L641.807 560.033C645.817 557.537 650.388 556.28 655.551 556.28V555.28V554.28C650.047 554.28 645.104 555.625 640.751 558.335L641.279 559.184ZM655.551 555.28V556.28C660.067 556.28 663.856 557.191 666.959 558.964L667.455 558.096L667.951 557.228C664.484 555.246 660.336 554.28 655.551 554.28V555.28ZM667.455 558.096L666.959 558.964C670.101 560.76 672.626 563.183 674.544 566.243L675.391 565.712L676.238 565.181C674.145 561.841 671.379 559.187 667.951 557.228L667.455 558.096ZM675.391 565.712L674.544 566.243C676.477 569.328 677.822 572.836 678.568 576.778L679.551 576.592L680.534 576.406C679.744 572.241 678.316 568.496 676.238 565.181L675.391 565.712ZM679.551 576.592L678.571 576.79C679.362 580.705 679.593 584.771 679.258 588.993L680.255 589.072L681.252 589.151C681.6 584.754 681.361 580.501 680.531 576.394L679.551 576.592ZM680.255 589.072V588.072H635.967V589.072V590.072H680.255V589.072ZM635.967 589.072H636.967V582.928H635.967H634.967V589.072H635.967ZM635.967 582.928V583.928H673.663V582.928V581.928H635.967V582.928ZM673.663 582.928L673.117 582.09L670.173 584.01L670.719 584.848L671.265 585.686L674.209 583.766L673.663 582.928ZM670.719 584.848L671.718 584.899C671.849 582.308 671.696 579.717 671.257 577.129L670.271 577.296L669.285 577.463C669.7 579.909 669.845 582.354 669.72 584.797L670.719 584.848ZM670.271 577.296L671.26 577.145C670.86 574.525 670.08 572.113 668.914 569.915L668.031 570.384L667.148 570.853C668.2 572.837 668.914 575.032 669.282 577.447L670.271 577.296ZM668.031 570.384L668.918 569.923C667.729 567.635 666.052 565.796 663.897 564.421L663.359 565.264L662.821 566.107C664.677 567.291 666.114 568.866 667.144 570.845L668.031 570.384ZM663.359 565.264L663.897 564.421C661.688 563.011 658.926 562.344 655.679 562.344V563.344V564.344C658.661 564.344 661.019 564.957 662.821 566.107L663.359 565.264ZM655.679 563.344V562.344C651.577 562.344 648.068 563.395 645.219 565.555L645.823 566.352L646.427 567.149C648.868 565.298 651.931 564.344 655.679 564.344V563.344ZM645.823 566.352L645.219 565.555C642.42 567.677 640.329 570.473 638.943 573.915L639.871 574.288L640.799 574.661C642.058 571.532 643.936 569.038 646.427 567.149L645.823 566.352ZM639.871 574.288L638.945 573.91C637.569 577.283 636.887 580.932 636.887 584.848H637.887H638.887C638.887 581.169 639.527 577.779 640.797 574.666L639.871 574.288ZM637.887 584.848H636.887V588.944H637.887H638.887V584.848H637.887ZM637.887 588.944H636.887C636.887 593.31 637.542 597.252 638.872 600.755L639.807 600.4L640.742 600.045C639.512 596.806 638.887 593.111 638.887 588.944H637.887ZM639.807 600.4L638.876 600.765C640.259 604.288 642.327 607.112 645.093 609.198L645.695 608.4L646.297 607.602C643.858 605.762 642.001 603.253 640.738 600.035L639.807 600.4ZM645.695 608.4L645.093 609.198C647.904 611.318 651.414 612.344 655.551 612.344V611.344V610.344C651.752 610.344 648.691 609.407 646.297 607.602L645.695 608.4ZM655.551 611.344V612.344C659.683 612.344 663.172 611.342 665.943 609.264L665.343 608.464L664.743 607.664C662.394 609.426 659.355 610.344 655.551 610.344V611.344ZM665.343 608.464L665.943 609.264C668.753 607.157 670.419 604.062 671.004 600.098L670.015 599.952L669.026 599.806C668.502 603.352 667.054 605.931 664.743 607.664L665.343 608.464ZM670.015 599.952V600.952H680.383V599.952V598.952H670.015V599.952ZM680.383 599.952L679.395 599.796C678.778 603.702 677.387 607.041 675.238 609.839L676.031 610.448L676.824 611.057C679.198 607.967 680.708 604.309 681.371 600.108L680.383 599.952ZM676.031 610.448L675.242 609.833C673.085 612.601 670.337 614.742 666.98 616.256L667.391 617.168L667.802 618.08C671.442 616.437 674.454 614.098 676.82 611.063L676.031 610.448ZM667.391 617.168L666.98 616.256C663.628 617.769 659.824 618.536 655.551 618.536V619.536V620.536C660.067 620.536 664.157 619.724 667.802 618.08L667.391 617.168ZM689.429 556.816V555.816H687.953L688.5 557.187L689.429 556.816ZM700.821 556.816L701.76 556.473L701.521 555.816H700.821V556.816ZM720.021 609.424V610.424H721.45L720.96 609.081L720.021 609.424ZM718.613 609.424L717.674 609.081L717.184 610.424H718.613V609.424ZM737.813 556.816V555.816H737.113L736.874 556.473L737.813 556.816ZM749.205 556.816L750.134 557.187L750.681 555.816H749.205V556.816ZM724.757 618V619H725.434L725.686 618.371L724.757 618ZM713.877 618L712.948 618.371L713.2 619H713.877V618ZM689.429 556.816V557.816H700.821V556.816V555.816H689.429V556.816ZM700.821 556.816L699.882 557.159L719.082 609.767L720.021 609.424L720.96 609.081L701.76 556.473L700.821 556.816ZM720.021 609.424V608.424H718.613V609.424V610.424H720.021V609.424ZM718.613 609.424L719.552 609.767L738.752 557.159L737.813 556.816L736.874 556.473L717.674 609.081L718.613 609.424ZM737.813 556.816V557.816H749.205V556.816V555.816H737.813V556.816ZM749.205 556.816L748.276 556.445L723.828 617.629L724.757 618L725.686 618.371L750.134 557.187L749.205 556.816ZM724.757 618V617H713.877V618V619H724.757V618ZM713.877 618L714.806 617.629L690.358 556.445L689.429 556.816L688.5 557.187L712.948 618.371L713.877 618Z" fill="black" mask="url(#path-4-outside-1_3_14)"/>
	</g>
	<defs>
		<filter id="filter0_d_3_14" x="182.427" y="0.655312" width="470.152" height="508.732" filterUnits="userSpaceOnUse" color-interpolation-filters="sRGB">
			<feFlood flood-opacity="0" result="BackgroundImageFix"/>
			<feColorMatrix in="SourceAlpha" type="matrix" values="0 0 0 0 0 0 0 0 0 0 0 0 0 0 0 0 0 0 127 0" result="hardAlpha"/>
			<feOffset/>
			<feGaussianBlur stdDeviation="18"/>
			<feComposite in2="hardAlpha" operator="out"/>
			<feColorMatrix type="matrix" values="0 0 0 0 0 0 0 0 0 0.32549 0 0 0 0 0.72549 0 0 0 0.31 0"/>
			<feBlend mode="normal" in2="BackgroundImageFix" result="effect1_dropShadow_3_14"/>
			<feBlend mode="normal" in="SourceGraphic" in2="effect1_dropShadow_3_14" result="shape"/>
		</filter>
		<filter id="filter1_d_3_14" x="214.427" y="36.6553" width="406.152" height="444.732" filterUnits="userSpaceOnUse" color-interpolation-filters="sRGB">
			<feFlood flood-opacity="0" result="BackgroundImageFix"/>
			<feColorMatrix in="SourceAlpha" type="matrix" values="0 0 0 0 0 0 0 0 0 0 0 0 0 0 0 0 0 0 127 0" result="hardAlpha"/>
			<feOffset dy="4"/>
			<feGaussianBlur stdDeviation="2"/>
			<feComposite in2="hardAlpha" operator="out"/>
			<feColorMatrix type="matrix" values="0 0 0 0 0 0 0 0 0 0 0 0 0 0 0 0 0 0 0.25 0"/>
			<feBlend mode="normal" in2="BackgroundImageFix" result="effect1_dropShadow_3_14"/>
			<feBlend mode="normal" in="SourceGraphic" in2="effect1_dropShadow_3_14" result="shape"/>
		</filter>
		<filter id="filter2_d_3_14" x="0.940475" y="447.904" width="413.059" height="254.048" filterUnits="userSpaceOnUse" color-interpolation-filters="sRGB">
			<feFlood flood-opacity="0" result="BackgroundImageFix"/>
			<feColorMatrix in="SourceAlpha" type="matrix" values="0 0 0 0 0 0 0 0 0 0 0 0 0 0 0 0 0 0 127 0" result="hardAlpha"/>
			<feOffset/>
			<feGaussianBlur stdDeviation="41.4"/>
			<feComposite in2="hardAlpha" operator="out"/>
			<feColorMatrix type="matrix" values="0 0 0 0 0 0 0 0 0 0.32549 0 0 0 0 0.72549 0 0 0 0.37 0"/>
			<feBlend mode="normal" in2="BackgroundImageFix" result="effect1_dropShadow_3_14"/>
			<feBlend mode="normal" in="SourceGraphic" in2="effect1_dropShadow_3_14" result="shape"/>
		</filter>
		<filter id="filter3_d_3_14" x="354.052" y="529.704" width="400.63" height="98.832" filterUnits="userSpaceOnUse" color-interpolation-filters="sRGB">
			<feFlood flood-opacity="0" result="BackgroundImageFix"/>
			<feColorMatrix in="SourceAlpha" type="matrix" values="0 0 0 0 0 0 0 0 0 0 0 0 0 0 0 0 0 0 127 0" result="hardAlpha"/>
			<feOffset dy="4"/>
			<feGaussianBlur stdDeviation="2"/>
			<feComposite in2="hardAlpha" operator="out"/>
			<feColorMatrix type="matrix" values="0 0 0 0 0 0 0 0 0 0 0 0 0 0 0 0 0 0 0.25 0"/>
			<feBlend mode="normal" in2="BackgroundImageFix" result="effect1_dropShadow_3_14"/>
			<feBlend mode="normal" in="SourceGraphic" in2="effect1_dropShadow_3_14" result="shape"/>
		</filter>
	</defs>
</svg>
