<svg width="512" height="512" viewBox="0 0 512 512" fill="none" xmlns="http://www.w3.org/2000/svg">
	<g filter="url(#filter0_d_2_2)">
		<path d="M194.721 368.443C194.721 368.193 195.059 366.231 195.473 364.084C197.626 352.904 195.271 335.793 189.722 322.292C188.612 319.59 187.704 317.233 187.704 317.052C187.704 316.872 188.662 316.103 189.834 315.343C197.197 310.572 205.348 302.111 211.809 292.534C216.08 286.204 216.789 284.416 214.395 286.014C209.571 289.236 198.715 295.348 191.212 299.067C172.391 308.397 154.856 313.49 143.165 313.023C138.849 312.851 137.847 312.629 134.913 311.193C129.052 308.325 127.207 304.208 126.583 292.603C126.208 285.639 126.208 285.639 122.928 282.31C118.616 277.935 118.14 277.002 119.378 275.355C119.93 274.62 121.311 273.808 122.687 273.409C125.375 272.63 125.661 271.983 123.671 271.184C116.796 268.424 113.52 265.97 113.52 263.58C113.52 262.959 114.423 260.641 115.525 258.429C116.628 256.216 117.529 253.883 117.528 253.244C117.524 250.916 115.781 249.086 111.451 246.867C109.143 245.684 106.195 243.953 104.9 243.02C102.129 241.025 99.4857 237.644 99.4857 236.094C99.4857 235.432 100.904 233.451 103.071 231.087C112.834 220.434 117.703 213.217 120.329 205.505C121.569 201.861 121.594 193.567 120.385 186.576C119.168 179.536 118.717 164.15 119.503 156.436C120.796 143.735 124.137 132.357 130.371 119.432C131.599 116.887 132.82 114.939 133.086 115.102C133.352 115.266 133.57 117.039 133.57 119.044C133.57 124.217 135.353 134.132 137.37 140.176C140.431 149.35 144.438 155.997 152.163 164.718C153.77 166.532 154.97 168.131 154.829 168.271C154.688 168.411 153.625 168.295 152.467 168.014C151.309 167.733 147.542 167.479 144.096 167.45C137.086 167.391 134.968 167.891 132.274 170.241C130.905 171.436 130.563 172.103 130.563 173.58C130.563 174.595 130.86 175.83 131.223 176.324C131.854 177.181 132.055 177.161 135.609 175.877C140.201 174.218 146.89 173.733 153.369 174.589C161.579 175.674 162.304 175.935 166.26 179.23C172.761 184.645 179.615 188.584 185.877 190.504C189.024 191.468 193.719 191.937 193.719 191.286C193.719 191.137 192.274 189.251 190.508 187.094C186.068 181.674 180.949 172.698 181.81 171.843C181.945 171.709 183.045 172.426 184.253 173.437C189.262 177.628 197.556 182.204 204.914 184.837C207.348 185.708 209.121 186.666 209.578 187.359C211.015 189.539 216.236 201.502 217.965 206.578C220.406 213.743 221.407 218.844 221.548 224.832C221.614 227.653 221.781 230.073 221.919 230.21C222.764 231.05 231.604 218.214 238.589 206.003C244.567 195.554 247.428 191.407 251.325 187.541C255.665 183.235 258.997 181.594 263.4 181.594C267.822 181.594 270.877 182.708 273.927 185.434C277.215 188.372 278.705 190.982 280.002 196.079C280.899 199.607 281.019 201.161 280.782 206.237C280.44 213.595 279.636 216.653 276.192 223.704C272.179 231.921 264.23 241.513 258.128 245.502C254.864 247.635 250.377 248.543 246.162 247.921C244.216 247.634 242.533 247.488 242.423 247.598C242.313 247.707 242.476 248.517 242.784 249.397C244.182 253.383 248.022 256.316 251.842 256.316C252.956 256.316 253.867 256.537 253.867 256.808C253.867 257.078 253.314 259.418 252.637 262.007C251.96 264.597 250.589 270.82 249.59 275.837C245.373 297.021 239.582 315.543 233.343 327.8C224.715 344.751 213.578 357.476 199.395 366.587C195.828 368.878 194.721 369.318 194.721 368.443ZM252.573 230.93C256.301 229.162 260.938 224.562 262.497 221.086C265.092 215.302 262.845 207.599 257.519 204.022C254.632 202.083 254.364 201.297 255.92 199.332C259.194 195.194 265.588 194.97 270.659 198.814C272.642 200.317 272.855 199.85 271.44 197.094C270.362 194.993 267.455 192.24 265.558 191.524C259.776 189.339 253.479 194.874 250.617 204.656C249.948 206.946 249.853 208.594 250.132 213.104C250.434 217.996 250.346 219.131 249.434 222.063C248.017 226.619 247.607 230.022 248.316 231.339C248.632 231.925 249.019 232.405 249.177 232.405C249.335 232.405 250.863 231.741 252.573 230.93ZM146.518 210.437C150.127 209.225 155.782 205.679 159.384 202.369C162.372 199.622 161.815 199.427 156.126 201.229C148.055 203.784 143.669 203.328 140.577 199.612C138.649 197.295 138.1 197.946 138.089 202.562C138.085 204.367 137.753 206.928 137.353 208.251C136.952 209.574 136.74 210.843 136.881 211.07C137.386 211.881 143.387 211.487 146.518 210.437ZM322.534 214.504C320.014 213.743 318.209 212.518 315.668 209.848C311.069 205.015 305.322 195.131 301.938 186.234C300.348 182.053 300.269 181.522 300.264 175.118C300.258 167.135 301.129 163.994 304.88 158.471C308.689 152.862 316.934 147.346 323.231 146.193C327.203 145.465 330.456 145.993 334.554 148.031C339.729 150.604 342.513 154.1 344.328 160.304C344.785 161.866 345.342 163.257 345.566 163.394C346.129 163.74 346.597 161.119 346.597 157.621C346.597 155.105 346.727 154.694 347.524 154.694C349.983 154.694 356.475 161.214 358.684 165.902C362.816 174.675 362.586 185.654 358.096 194.026C354.766 200.236 347.506 206.252 337.93 210.739C329.762 214.566 325.879 215.516 322.534 214.504ZM398.725 204.265C391.814 203.088 388.495 202.006 381.916 198.783C374.715 195.255 370.674 192.083 367.444 187.421C365.697 184.9 365.534 184.352 365.118 179.595C364.351 170.818 362.232 165.66 356.361 158.282C354.574 156.036 353.113 153.979 353.113 153.709C353.113 152.117 362.181 152.532 367.494 154.366C369.476 155.051 373.142 156.526 375.64 157.643C378.137 158.761 380.293 159.676 380.431 159.676C381.438 159.676 380.178 157.828 377.427 155.27C373.898 151.99 368.883 149.3 363.934 148.033C362.304 147.616 360.643 146.949 360.242 146.55C359.604 145.917 359.665 145.727 360.728 145.035C361.396 144.6 364.298 143.772 367.177 143.195C375.176 141.591 374.677 141.075 365.518 141.48C358.064 141.809 357.624 141.778 357.626 140.914C357.627 140.392 358.969 138.929 360.751 137.508C367.95 131.767 377.162 121.896 375.755 121.43C375.032 121.19 369.926 123.835 363.397 127.831C357.791 131.263 356.621 131.766 356.621 130.749C356.621 128.932 360.539 121.529 365.023 114.872C371.496 105.262 374.24 99.7251 375.981 92.7675C376.723 89.8046 377.765 86.8296 378.298 86.1566C379.614 84.4943 387.558 80.7526 392.429 79.5005C397.751 78.1326 405.147 78.1191 410.55 79.4673C415.768 80.7697 422.314 84.0661 424.537 86.5112C426.552 88.7276 426.788 90.6474 425.547 94.713C424.508 98.116 424.546 98.2598 426.762 99.3832C429.083 100.56 430.304 102.113 430.304 103.89C430.304 108.328 426.022 117.975 421.269 124.243C414.989 132.526 408.374 136.508 396.23 139.316C390.459 140.65 390.15 140.753 390.456 141.247C390.603 141.482 392.016 141.939 393.596 142.262C401.427 143.859 408.678 146.894 413.935 150.776C423.662 157.957 428.892 173.612 426.05 187.04C424.948 192.248 424.138 193.785 421.49 195.695C419.806 196.91 418.88 198.039 418.309 199.575C417.81 200.918 416.881 202.159 415.865 202.839C412.639 204.999 406.192 205.536 398.725 204.265ZM309.868 144.208C298.888 143.003 286.91 137.292 279.823 129.883C276.499 126.408 272.259 120.223 270.386 116.119C268.656 112.327 266.397 104.692 266.403 102.66C266.413 99.6441 268.708 96.0111 273.791 90.9643C277.957 86.8278 279.382 85.7655 283.44 83.7693C292.336 79.3941 299.165 79.0097 306.808 82.4541C317.499 87.2717 328.225 100.055 333.592 114.376C335.852 120.406 336.071 124.966 334.427 131.78C333.734 134.656 333.029 138.457 332.861 140.226C332.693 141.995 332.388 143.594 332.183 143.78C331.571 144.335 314.078 144.67 309.868 144.208ZM350.105 127.171C350.105 126.828 350.558 124.194 351.11 121.317C352.86 112.216 353.256 107.679 352.626 103.967C352.046 100.55 351.407 98.9368 350.852 99.4883C350.681 99.658 350.231 101.109 349.851 102.712C348.684 107.643 346.569 113.399 344.296 117.831C341.683 122.926 340.323 124.753 339.658 124.058C339.397 123.784 338.138 120.434 336.862 116.613C333.706 107.167 328.712 98.4142 322.669 91.7397C319.882 88.6614 318.948 85.9821 318.652 80.2226C318.34 74.1482 319.269 69.232 321.835 63.3855C325.303 55.4817 328.407 51.6521 335.884 46.0502C338.4 44.165 340.808 42.0932 341.235 41.4461C341.661 40.799 342.825 39.8853 343.821 39.4155C345.315 38.7111 345.935 38.6607 347.358 39.1275C350.255 40.0779 356.368 44.3535 360.678 48.4441C369.735 57.0407 373.88 65.7409 374.513 77.4816C374.996 86.4422 373.307 95.4194 369.682 103.165C366.482 110.003 358.437 121.119 353.388 125.677C350.972 127.859 350.105 128.253 350.105 127.171Z" fill="#F9F8F8"/>
		<path d="M316.844 472.76C313.283 471.412 307.269 467.308 307.741 466.549C307.876 466.331 309.028 466.374 310.3 466.643C315.193 467.681 320.951 465.7 325.383 461.457C329.404 457.607 331.899 449.826 331.315 442.961C330.902 438.108 329.975 434.963 327.541 430.152C324.837 424.808 322.553 422.066 312.825 412.485C304.039 403.831 302.084 401.282 299.657 395.309C296.995 388.76 296.361 385.159 296.102 375.118C295.804 363.577 296.439 358.55 300.037 343.99C303.044 331.817 304.716 322.304 305.496 312.934C306.021 306.625 305.961 305.003 305.229 305.73C305.083 305.876 304.421 308.211 303.757 310.919C299.162 329.673 289.86 346.911 276.975 360.552C268.903 369.098 259.677 375.706 241.941 385.646C220.144 397.862 214.379 401.563 205.959 408.749C201.243 412.773 195.957 418.723 193.016 423.318C187.593 431.79 184.826 445.267 187 452.62C189.782 462.024 195.34 467.222 203.328 467.887C205.514 468.069 206.718 468.377 206.603 468.724C206.503 469.026 205.1 469.946 203.487 470.768C200.809 472.132 200.135 472.259 195.757 472.229C190.22 472.19 187.728 471.373 182.088 467.748C177.667 464.905 174.387 461.851 170.95 457.376C163.699 447.935 160.84 437.99 162.088 426.552C162.638 421.509 164.761 413.475 166.396 410.243C166.742 409.558 167.2 408.439 167.412 407.756C167.769 406.61 167.73 406.571 166.909 407.249C165.792 408.17 160.863 414.656 158.757 417.975C156.262 421.909 153.214 428.717 152.386 432.209C151.128 437.512 151.407 442.696 153.388 450.842C153.752 452.336 153.752 452.336 151.897 450.593C149.464 448.306 146.283 441.827 145.291 437.143C144.713 434.409 144.57 431.803 144.759 427.429C145.06 420.451 146.161 416.144 149.344 409.496C154.845 398.007 160.492 391.814 181.208 374.546C186.848 369.845 192.365 365.22 193.468 364.268C195.473 362.537 195.473 362.537 195.754 354.633C196.035 346.729 196.035 346.729 196.13 353.416C196.192 357.783 195.951 361.556 195.434 364.295C194.999 366.601 194.778 368.621 194.943 368.785C195.703 369.54 206.004 362.388 211.606 357.215C222.868 346.818 233.257 330.806 238.772 315.346C243.485 302.136 246.672 290.498 249.59 275.837C250.589 270.82 251.96 264.597 252.637 262.007C253.314 259.418 253.867 257.078 253.867 256.808C253.867 256.537 252.956 256.316 251.842 256.316C248.022 256.316 244.182 253.383 242.784 249.397C242.476 248.517 242.313 247.707 242.423 247.598C242.533 247.488 244.216 247.634 246.162 247.921C250.377 248.543 254.864 247.635 258.128 245.502C264.23 241.513 272.179 231.921 276.192 223.704C279.636 216.653 280.44 213.595 280.782 206.237C281.239 196.42 279.16 190.109 273.927 185.434C270.877 182.708 267.822 181.594 263.4 181.594C258.997 181.594 255.665 183.235 251.325 187.541C247.428 191.407 244.567 195.554 238.589 206.003C231.604 218.213 222.764 231.05 221.919 230.21C221.781 230.073 221.614 227.653 221.548 224.832C221.407 218.844 220.406 213.743 217.965 206.578C216.236 201.502 211.015 189.539 209.578 187.359C209.121 186.666 207.348 185.708 204.914 184.837C197.556 182.204 189.262 177.628 184.253 173.437C183.045 172.426 181.945 171.709 181.81 171.843C180.949 172.698 186.068 181.674 190.508 187.094C192.274 189.251 193.719 191.137 193.719 191.286C193.719 191.937 189.024 191.468 185.877 190.503C179.615 188.584 172.761 184.645 166.26 179.23C162.304 175.935 161.579 175.674 153.369 174.589C146.89 173.733 140.201 174.218 135.609 175.877C132.055 177.161 131.854 177.181 131.223 176.324C130.86 175.83 130.563 174.595 130.563 173.58C130.563 172.103 130.905 171.436 132.274 170.241C134.968 167.891 137.085 167.391 144.096 167.45C147.542 167.479 151.309 167.733 152.467 168.014C153.625 168.295 154.688 168.411 154.829 168.271C154.97 168.131 153.77 166.532 152.163 164.718C144.438 155.997 140.431 149.35 137.37 140.176C135.353 134.132 133.57 124.217 133.57 119.044C133.57 117.039 133.377 115.281 133.14 115.136C132.581 114.792 130.724 118.244 127.807 125.055C119.421 144.633 117.353 161.701 120.293 187.074C120.483 188.71 120.427 189.032 120.086 188.264C119.734 187.47 118.987 187.13 117.029 186.872C108.747 185.78 102.532 180.27 98.1552 170.139C96.7337 166.849 95.8034 163.158 94.725 156.53C94.3363 154.141 93.5881 154.362 92.4271 157.208C90.492 161.951 91.4516 173.219 94.3456 179.736C95.0477 181.317 95.4974 182.735 95.3449 182.886C94.8572 183.371 92.2222 181.73 90.0979 179.619C80.6509 170.23 78.3407 152.163 84.2673 134.021C88.2185 121.926 96.8349 108.721 108.34 97.1297C122.007 83.3606 138.649 71.9464 154.121 65.7315C157.085 64.5409 160.302 62.7568 162.642 61.0062C178.779 48.933 201.782 40.6024 227.832 37.3973C235.028 36.5119 248.774 36.4002 256.662 37.1631C278.1 39.2364 299.789 47.8524 317.612 61.3755C319.176 62.5624 320.574 63.5335 320.717 63.5335C320.861 63.5335 321.823 61.9372 322.854 59.9861C326.088 53.8716 329.506 50.0494 335.82 45.4912C337.198 44.496 339.329 42.6593 340.554 41.4096C341.78 40.1599 343.544 38.8875 344.475 38.5821C345.979 38.0891 346.518 38.1982 349.295 39.5566C355.432 42.5595 364.088 50.1386 367.903 55.85C374.002 64.9824 376.271 75.7404 374.639 87.7821C373.535 95.9249 371.041 102.885 367.035 109.002C364.752 112.488 364.222 113.972 365.553 113.155C366.373 112.651 372.089 102.736 373.352 99.6243C374.015 97.994 375.063 94.5669 375.683 92.0085C376.413 88.9975 377.248 86.8389 378.053 85.8885C379.661 83.9897 387.344 80.3092 392.429 79.0024C402.386 76.4433 414.461 78.5926 423.025 84.4482C426.788 87.0216 427.558 89.6912 426.02 94.8373C425.594 96.263 425.378 97.6427 425.54 97.9033C425.702 98.1638 426.625 98.7495 427.59 99.2048C429.46 100.087 430.805 102.093 430.805 104.003C430.805 107.755 427.164 116.64 423.323 122.261C416.528 132.206 408.067 137.484 394.465 140.266C390.981 140.978 391.05 141.028 398.224 142.952C400.843 143.655 405.333 145.393 408.203 146.816C415.387 150.377 419.689 154.567 422.958 161.19C425.948 167.245 426.834 170.628 427.161 177.239C427.58 185.735 425.98 192.365 422.826 195.197C421.779 196.137 420.692 196.992 420.41 197.096C420.129 197.2 419.364 198.405 418.71 199.773C417.281 202.763 415.217 204.241 411.351 205.041C406.151 206.118 395.917 204.846 388.45 202.193C382.481 200.073 383.021 199.926 383.429 203.564C384.619 214.188 387.258 223.13 391.792 231.903C398.56 244.997 406.843 254.145 427.046 270.843C437.182 279.221 447.168 289.137 451.297 294.922C455.218 300.417 460.426 310.842 461.826 316.001C464.996 327.677 463.827 340.578 458.634 351.213C456.551 355.478 452.261 360.927 450.985 360.927C450.668 360.927 450.94 360.003 451.607 358.809C453.544 355.343 454.516 349.265 454.245 342.307C454.048 337.256 453.744 335.454 452.383 331.287C449.103 321.244 443.147 311.965 432.665 300.569C428.124 295.632 423.472 291.36 424.374 292.956C424.521 293.216 426.017 295.672 427.698 298.415C434.553 309.598 439.065 321.969 441.413 336.019C442.403 341.941 442.235 359.138 441.13 365.161C437.838 383.094 429.001 396.764 414.278 406.7C410.136 409.496 410.136 409.496 408.456 414.188C402.854 429.835 395.191 439.252 383.318 445.079C379.457 446.974 377.673 447.519 377.673 446.804C377.673 446.638 378.323 445.685 379.118 444.687C384.201 438.299 388.081 427.82 389.75 415.972C390.097 413.506 390.394 407.678 390.408 403.02C390.437 393.797 389.797 389.604 387.215 382.098C384.668 374.692 381.035 366.884 380.422 367.494C380.309 367.606 380.544 368.92 380.945 370.414C384.209 382.588 385.603 395.701 384.694 405.689C382.996 424.363 375.238 439.601 362.621 449.05C358.806 451.906 349.27 457.069 347.808 457.069C347.421 457.069 345.892 458.699 344.409 460.692C340.752 465.606 336.274 469.613 332.226 471.594C329.185 473.082 328.375 473.252 323.819 473.366C320.326 473.453 318.184 473.267 316.844 472.76ZM353.81 443.153C356.413 437.388 357.246 433.061 357.27 425.187C357.294 417.085 356.353 411.634 353.669 404.331C351.628 398.778 349.47 394.975 343.61 386.604C340.915 382.756 337.688 377.814 336.438 375.622C334.33 371.927 330.557 362.767 330.557 361.347C330.557 360.883 330.413 360.87 329.986 361.295C329.235 362.041 330.241 372.476 331.797 380.093C333.086 386.4 334.745 390.419 339.82 399.533C348.9 415.836 351.099 423.587 351.105 439.321C351.108 448.182 351.371 448.554 353.81 443.153ZM414.658 398.253C418.003 392.758 420.184 383.365 420.605 372.633C420.955 363.737 419.859 356.054 417.053 347.718C412.611 334.525 406.088 325.032 388.092 305.567C377.652 294.274 372.696 288.305 367.775 281.099C363.079 274.22 362.666 274.531 365.853 282.546C367.977 287.887 372.625 295.897 378.719 304.716C390.74 322.116 396.692 331.185 399.587 336.517C408.661 353.232 413.253 371.985 412.577 389.57C412.409 393.954 412.121 398.411 411.938 399.475C411.47 402.192 412.558 401.703 414.658 398.253ZM330.197 213.936C338.868 211.059 349.641 204.621 354.097 199.653C363.888 188.735 364.221 170.552 354.818 160.211C351.937 157.043 348.832 154.694 347.524 154.694C346.727 154.694 346.597 155.105 346.597 157.621C346.597 161.119 346.129 163.74 345.566 163.394C345.342 163.257 344.785 161.866 344.328 160.304C342.513 154.1 339.729 150.604 334.554 148.031C326.872 144.212 320.33 145.365 311.101 152.165C306.607 155.477 303.201 160.037 301.399 165.155C300.429 167.911 300.26 169.395 300.264 175.118C300.269 181.522 300.348 182.053 301.938 186.234C305.322 195.131 311.069 205.015 315.668 209.848C320.445 214.868 324.201 215.925 330.197 213.936ZM411.715 204.471C415.256 203.717 417.346 202.165 418.309 199.575C418.88 198.039 419.806 196.91 421.49 195.695C424.138 193.785 424.948 192.248 426.05 187.04C428.892 173.612 423.662 157.957 413.935 150.776C408.678 146.894 401.427 143.859 393.597 142.262C392.016 141.939 390.603 141.482 390.457 141.247C390.15 140.753 390.46 140.65 396.23 139.316C408.374 136.508 414.989 132.526 421.269 124.243C426.022 117.975 430.304 108.328 430.304 103.89C430.304 102.113 429.083 100.56 426.762 99.3832C424.546 98.2597 424.508 98.116 425.547 94.713C426.788 90.6474 426.552 88.7276 424.537 86.5112C422.314 84.0661 415.768 80.7697 410.55 79.4673C405.147 78.1191 397.751 78.1326 392.429 79.5005C387.558 80.7526 379.614 84.4943 378.298 86.1566C377.765 86.8296 376.723 89.8046 375.981 92.7675C374.241 99.7251 371.496 105.262 365.023 114.872C360.539 121.529 356.621 128.932 356.621 130.749C356.621 131.766 357.791 131.263 363.397 127.831C369.927 123.835 375.032 121.19 375.755 121.43C377.162 121.896 367.95 131.767 360.751 137.508C358.969 138.929 357.627 140.392 357.626 140.914C357.624 141.778 358.065 141.809 365.518 141.48C374.677 141.075 375.176 141.591 367.177 143.195C364.298 143.772 361.396 144.6 360.728 145.035C359.665 145.727 359.604 145.917 360.242 146.55C360.643 146.949 362.304 147.616 363.934 148.033C368.883 149.3 373.898 151.99 377.427 155.27C380.178 157.828 381.438 159.676 380.431 159.676C380.293 159.676 378.137 158.761 375.64 157.643C373.142 156.526 369.476 155.051 367.494 154.366C362.181 152.532 353.113 152.117 353.113 153.709C353.113 153.979 354.574 156.036 356.361 158.282C362.232 165.66 364.351 170.818 365.118 179.595C365.534 184.352 365.697 184.9 367.444 187.421C370.674 192.083 374.715 195.255 381.916 198.783C392.384 203.912 403.967 206.123 411.715 204.471ZM332.183 143.78C332.388 143.594 332.693 141.995 332.861 140.226C333.029 138.457 333.734 134.656 334.427 131.78C335.436 127.597 335.636 125.75 335.428 122.564C334.861 113.908 328.754 102.089 319.597 91.9241C314.083 85.804 306.867 81.541 300.056 80.3802C295.178 79.5489 289.784 80.6492 283.44 83.7693C279.382 85.7655 277.957 86.8278 273.791 90.9643C268.708 96.0111 266.413 99.6441 266.403 102.66C266.396 104.692 268.656 112.327 270.386 116.119C272.259 120.223 276.499 126.408 279.823 129.883C286.91 137.292 298.888 143.003 309.868 144.208C314.078 144.67 331.571 144.335 332.183 143.78ZM353.388 125.677C358.437 121.119 366.482 110.003 369.682 103.165C373.307 95.4194 374.996 86.4422 374.513 77.4816C373.881 65.7409 369.735 57.0407 360.678 48.4441C356.368 44.3535 350.256 40.0779 347.358 39.1275C345.935 38.6607 345.315 38.7111 343.821 39.4155C342.825 39.8853 341.661 40.799 341.235 41.4461C340.808 42.0932 338.4 44.165 335.884 46.0502C328.407 51.6521 325.303 55.4817 321.835 63.3855C319.269 69.232 318.34 74.1482 318.652 80.2226C318.948 85.9821 319.882 88.6614 322.669 91.7397C328.712 98.4142 333.706 107.167 336.862 116.613C338.138 120.434 339.397 123.784 339.659 124.058C341.168 125.638 347.625 112.115 349.851 102.712C350.231 101.109 350.681 99.658 350.852 99.4883C351.407 98.9368 352.046 100.55 352.626 103.967C353.256 107.679 352.86 112.216 351.11 121.317C350.558 124.194 350.105 126.828 350.105 127.171C350.105 128.253 350.972 127.859 353.388 125.677ZM335.068 112.943C335.068 111.872 331.484 104.774 328.982 100.889C328.01 99.379 325.341 95.8294 323.052 93.001C320.079 89.3281 318.772 88.0475 318.478 88.5203C318.012 89.2697 318.129 89.4506 322.192 94.2298C326.188 98.9313 329.319 103.754 331.928 109.227C334.04 113.658 335.068 114.875 335.068 112.943ZM116.027 442.113C112.595 441.408 106.122 438.008 102.587 435.055C98.1309 431.332 93.8538 425.774 90.9684 419.957C87.6168 413.2 86.4149 408.459 86.1064 400.778C85.5878 387.869 88.8577 376.91 96.6102 365.577C100.422 360.004 100.355 360.158 98.5054 361.228C95.7639 362.815 86.1442 372.229 82.9235 376.477C77.1185 384.133 74.9022 389.96 74.8879 397.603C74.8785 402.648 75.5454 406.065 77.0866 408.868C78.3719 411.205 77.9662 411.649 75.7752 410.303C71.1264 407.448 67.1365 401.235 65.882 394.898C64.9454 390.167 65.5124 381.465 67.0405 377.116C69.9827 368.744 74.3685 362.067 81.347 355.338C86.9148 349.97 90.3527 347.367 102.243 339.519C106.929 336.426 112.53 332.433 114.689 330.646C121.432 325.065 126.492 318.348 128.882 311.805C130.081 308.522 130.081 308.522 129.02 306.815C127.34 304.114 126.531 300.365 126.238 293.926C126.088 290.638 125.741 287.217 125.466 286.323C125.168 285.353 123.88 283.764 122.271 282.384C117.171 278.008 116.955 274.695 121.677 273.286C122.992 272.894 124.003 272.376 123.922 272.136C123.842 271.896 122.464 271.169 120.861 270.522C115.027 268.165 112.497 265.477 113.243 262.428C113.429 261.669 114.356 259.547 115.305 257.712C117.15 254.14 117.367 252.897 116.446 251.177C115.638 249.669 114.856 249.113 110.262 246.781C103.845 243.522 98.9845 238.913 98.9845 236.087C98.9845 235.337 100.666 233.07 103.824 229.562C112.253 220.199 116.511 213.947 119.369 206.738C120.632 203.554 120.749 202.688 120.768 196.369C120.783 191.345 120.899 190.061 121.195 191.637C121.824 194.976 121.242 202.893 120.139 206.014C117.461 213.591 112.71 220.569 103.071 231.087C100.904 233.451 99.4857 235.432 99.4857 236.094C99.4857 237.644 102.129 241.025 104.9 243.02C106.195 243.953 109.143 245.684 111.451 246.866C115.781 249.086 117.525 250.916 117.528 253.244C117.529 253.883 116.628 256.216 115.525 258.429C114.423 260.641 113.52 262.959 113.52 263.58C113.52 265.97 116.796 268.424 123.671 271.184C125.661 271.983 125.375 272.63 122.687 273.409C121.311 273.808 119.93 274.62 119.378 275.355C118.14 277.002 118.616 277.935 122.928 282.31C126.208 285.639 126.208 285.639 126.583 292.603C127.207 304.208 129.052 308.325 134.913 311.193C137.847 312.629 138.849 312.851 143.165 313.023C154.856 313.49 172.391 308.397 191.212 299.067C198.715 295.348 209.571 289.236 214.395 286.014C216.789 284.416 216.08 286.204 211.809 292.534C205.348 302.111 197.197 310.572 189.834 315.343C188.662 316.103 187.704 316.872 187.704 317.052C187.704 317.233 188.624 319.613 189.749 322.341C192.141 328.141 195.022 338.863 195.433 343.491C195.67 346.157 195.558 345.849 194.798 341.748C193.133 332.763 189.959 322.992 186.381 315.844C184.453 311.992 180.008 305.134 179.441 305.136C179.161 305.137 177.24 305.824 175.173 306.663C169.061 309.142 156.396 312.579 151.19 313.171C145.059 313.868 144.477 314.046 146.101 314.724C146.79 315.011 150.061 315.318 153.369 315.404C159.384 315.562 159.384 315.562 159.235 317.447C158.854 322.264 155.318 331.836 151.384 338.697C148.435 343.839 142.086 352.553 136.82 358.685C119.913 378.373 114.045 388.537 111.55 402.457C109.817 412.128 110.505 418.788 113.97 425.868C117.628 433.341 122.52 437.469 129.218 438.731C131.064 439.079 132.501 439.583 132.411 439.852C131.815 441.629 120.962 443.126 116.027 442.113ZM248.316 231.339C247.607 230.022 248.017 226.619 249.434 222.063C250.346 219.131 250.434 217.996 250.132 213.104C249.853 208.594 249.948 206.946 250.617 204.656C253.479 194.874 259.776 189.339 265.558 191.524C267.455 192.24 270.362 194.993 271.44 197.094C272.855 199.85 272.642 200.317 270.659 198.814C265.588 194.97 259.194 195.194 255.92 199.332C254.364 201.297 254.632 202.083 257.519 204.022C262.845 207.599 265.092 215.302 262.497 221.086C260.938 224.562 256.301 229.162 252.573 230.93C250.863 231.741 249.335 232.405 249.177 232.405C249.019 232.405 248.632 231.925 248.316 231.339ZM136.881 211.07C136.74 210.843 136.952 209.574 137.353 208.251C137.753 206.928 138.085 204.367 138.089 202.562C138.1 197.946 138.649 197.295 140.577 199.612C143.669 203.328 148.055 203.784 156.126 201.229C161.815 199.427 162.372 199.622 159.384 202.368C155.782 205.679 150.127 209.225 146.518 210.437C143.387 211.487 137.386 211.881 136.881 211.07Z" fill="#0053B9"/>
	</g>
	<defs>
		<filter id="filter0_d_2_2" x="61.4265" y="36.6553" width="406.152" height="444.732" filterUnits="userSpaceOnUse" color-interpolation-filters="sRGB">
			<feFlood flood-opacity="0" result="BackgroundImageFix"/>
			<feColorMatrix in="SourceAlpha" type="matrix" values="0 0 0 0 0 0 0 0 0 0 0 0 0 0 0 0 0 0 127 0" result="hardAlpha"/>
			<feOffset dy="4"/>
			<feGaussianBlur stdDeviation="2"/>
			<feComposite in2="hardAlpha" operator="out"/>
			<feColorMatrix type="matrix" values="0 0 0 0 0 0 0 0 0 0 0 0 0 0 0 0 0 0 0.25 0"/>
			<feBlend mode="normal" in2="BackgroundImageFix" result="effect1_dropShadow_2_2"/>
			<feBlend mode="normal" in="SourceGraphic" in2="effect1_dropShadow_2_2" result="shape"/>
		</filter>
	</defs>
</svg>
